  0
SECTION
  2
HEADER
  9
$ACADVER
  1
AC1024
  9
$ACADMAINTVER
 70
6
  9
$DWGCODEPAGE
  3
ANSI_1252
  9
$LASTSAVEDBY
  1
ezdxf
  9
$INSBASE
 10
0.0
 20
0.0
 30
0.0
  9
$EXTMIN
 10
1e+20
 20
1e+20
 30
1e+20
  9
$EXTMAX
 10
-1e+20
 20
-1e+20
 30
-1e+20
  9
$LIMMIN
 10
0.0
 20
0.0
  9
$LIMMAX
 10
420.0
 20
297.0
  9
$ORTHOMODE
 70
0
  9
$REGENMODE
 70
1
  9
$FILLMODE
 70
1
  9
$QTEXTMODE
 70
0
  9
$MIRRTEXT
 70
1
  9
$LTSCALE
 40
1.0
  9
$ATTMODE
 70
1
  9
$TEXTSIZE
 40
2.5
  9
$TRACEWID
 40
1.0
  9
$TEXTSTYLE
  7
Standard
  9
$CLAYER
  8
0
  9
$CELTYPE
  6
ByLayer
  9
$CECOLOR
 62
256
  9
$CELTSCALE
 40
1.0
  9
$DISPSILH
 70
0
  9
$DIMSCALE
 40
1.0
  9
$DIMASZ
 40
2.5
  9
$DIMEXO
 40
0.625
  9
$DIMDLI
 40
3.75
  9
$DIMRND
 40
0.0
  9
$DIMDLE
 40
0.0
  9
$DIMEXE
 40
1.25
  9
$DIMTP
 40
0.0
  9
$DIMTM
 40
0.0
  9
$DIMTXT
 40
2.5
  9
$DIMCEN
 40
2.5
  9
$DIMTSZ
 40
0.0
  9
$DIMTOL
 70
0
  9
$DIMLIM
 70
0
  9
$DIMTIH
 70
0
  9
$DIMTOH
 70
0
  9
$DIMSE1
 70
0
  9
$DIMSE2
 70
0
  9
$DIMTAD
 70
1
  9
$DIMZIN
 70
8
  9
$DIMBLK
  1

  9
$DIMASO
 70
1
  9
$DIMSHO
 70
1
  9
$DIMPOST
  1

  9
$DIMAPOST
  1

  9
$DIMALT
 70
0
  9
$DIMALTD
 70
3
  9
$DIMALTF
 40
0.03937007874
  9
$DIMLFAC
 40
1.0
  9
$DIMTOFL
 70
1
  9
$DIMTVP
 40
0.0
  9
$DIMTIX
 70
0
  9
$DIMSOXD
 70
0
  9
$DIMSAH
 70
0
  9
$DIMBLK1
  1

  9
$DIMBLK2
  1

  9
$DIMSTYLE
  2
ISO-25
  9
$DIMCLRD
 70
0
  9
$DIMCLRE
 70
0
  9
$DIMCLRT
 70
0
  9
$DIMTFAC
 40
1.0
  9
$DIMGAP
 40
0.625
  9
$DIMJUST
 70
0
  9
$DIMSD1
 70
0
  9
$DIMSD2
 70
0
  9
$DIMTOLJ
 70
0
  9
$DIMTZIN
 70
8
  9
$DIMALTZ
 70
0
  9
$DIMALTTZ
 70
0
  9
$DIMUPT
 70
0
  9
$DIMDEC
 70
2
  9
$DIMTDEC
 70
2
  9
$DIMALTU
 70
2
  9
$DIMALTTD
 70
3
  9
$DIMTXSTY
  7
Standard
  9
$DIMAUNIT
 70
0
  9
$DIMADEC
 70
0
  9
$DIMALTRND
 40
0.0
  9
$DIMAZIN
 70
0
  9
$DIMDSEP
 70
44
  9
$DIMATFIT
 70
3
  9
$DIMFRAC
 70
0
  9
$DIMLDRBLK
  1

  9
$DIMLUNIT
 70
2
  9
$DIMLWD
 70
-2
  9
$DIMLWE
 70
-2
  9
$DIMTMOVE
 70
0
  9
$DIMFXL
 40
1.0
  9
$DIMFXLON
 70
0
  9
$DIMJOGANG
 40
0.785398163397
  9
$DIMTFILL
 70
0
  9
$DIMTFILLCLR
 70
0
  9
$DIMARCSYM
 70
0
  9
$DIMLTYPE
  6

  9
$DIMLTEX1
  6

  9
$DIMLTEX2
  6

  9
$DIMTXTDIRECTION
 70
0
  9
$LUNITS
 70
2
  9
$LUPREC
 70
4
  9
$SKETCHINC
 40
1.0
  9
$FILLETRAD
 40
10.0
  9
$AUNITS
 70
0
  9
$AUPREC
 70
2
  9
$MENU
  1
.
  9
$ELEVATION
 40
0.0
  9
$PELEVATION
 40
0.0
  9
$THICKNESS
 40
0.0
  9
$LIMCHECK
 70
0
  9
$CHAMFERA
 40
0.0
  9
$CHAMFERB
 40
0.0
  9
$CHAMFERC
 40
0.0
  9
$CHAMFERD
 40
0.0
  9
$SKPOLY
 70
0
  9
$TDCREATE
 40
2461275.9463657406
  9
$TDUCREATE
 40
2458532.153996898
  9
$TDUPDATE
 40
2461275.9463657406
  9
$TDUUPDATE
 40
2458532.1544311
  9
$TDINDWG
 40
0.0
  9
$TDUSRTIMER
 40
0.0
  9
$USRTIMER
 70
1
  9
$ANGBASE
 50
0.0
  9
$ANGDIR
 70
0
  9
$PDMODE
 70
0
  9
$PDSIZE
 40
0.0
  9
$PLINEWID
 40
0.0
  9
$SPLFRAME
 70
0
  9
$SPLINETYPE
 70
6
  9
$SPLINESEGS
 70
8
  9
$HANDSEED
  5
146
  9
$SURFTAB1
 70
6
  9
$SURFTAB2
 70
6
  9
$SURFTYPE
 70
6
  9
$SURFU
 70
6
  9
$SURFV
 70
6
  9
$UCSBASE
  2

  9
$UCSNAME
  2

  9
$UCSORG
 10
0.0
 20
0.0
 30
0.0
  9
$UCSXDIR
 10
1.0
 20
0.0
 30
0.0
  9
$UCSYDIR
 10
0.0
 20
1.0
 30
0.0
  9
$UCSORTHOREF
  2

  9
$UCSORTHOVIEW
 70
0
  9
$UCSORGTOP
 10
0.0
 20
0.0
 30
0.0
  9
$UCSORGBOTTOM
 10
0.0
 20
0.0
 30
0.0
  9
$UCSORGLEFT
 10
0.0
 20
0.0
 30
0.0
  9
$UCSORGRIGHT
 10
0.0
 20
0.0
 30
0.0
  9
$UCSORGFRONT
 10
0.0
 20
0.0
 30
0.0
  9
$UCSORGBACK
 10
0.0
 20
0.0
 30
0.0
  9
$PUCSBASE
  2

  9
$PUCSNAME
  2

  9
$PUCSORG
 10
0.0
 20
0.0
 30
0.0
  9
$PUCSXDIR
 10
1.0
 20
0.0
 30
0.0
  9
$PUCSYDIR
 10
0.0
 20
1.0
 30
0.0
  9
$PUCSORTHOREF
  2

  9
$PUCSORTHOVIEW
 70
0
  9
$PUCSORGTOP
 10
0.0
 20
0.0
 30
0.0
  9
$PUCSORGBOTTOM
 10
0.0
 20
0.0
 30
0.0
  9
$PUCSORGLEFT
 10
0.0
 20
0.0
 30
0.0
  9
$PUCSORGRIGHT
 10
0.0
 20
0.0
 30
0.0
  9
$PUCSORGFRONT
 10
0.0
 20
0.0
 30
0.0
  9
$PUCSORGBACK
 10
0.0
 20
0.0
 30
0.0
  9
$USERI1
 70
0
  9
$USERI2
 70
0
  9
$USERI3
 70
0
  9
$USERI4
 70
0
  9
$USERI5
 70
0
  9
$USERR1
 40
0.0
  9
$USERR2
 40
0.0
  9
$USERR3
 40
0.0
  9
$USERR4
 40
0.0
  9
$USERR5
 40
0.0
  9
$WORLDVIEW
 70
1
  9
$SHADEDGE
 70
3
  9
$SHADEDIF
 70
70
  9
$TILEMODE
 70
1
  9
$MAXACTVP
 70
64
  9
$PINSBASE
 10
0.0
 20
0.0
 30
0.0
  9
$PLIMCHECK
 70
0
  9
$PEXTMIN
 10
1e+20
 20
1e+20
 30
1e+20
  9
$PEXTMAX
 10
-1e+20
 20
-1e+20
 30
-1e+20
  9
$PLIMMIN
 10
0.0
 20
0.0
  9
$PLIMMAX
 10
420.0
 20
297.0
  9
$UNITMODE
 70
0
  9
$VISRETAIN
 70
1
  9
$PLINEGEN
 70
0
  9
$PSLTSCALE
 70
1
  9
$TREEDEPTH
 70
3020
  9
$CMLSTYLE
  2
Standard
  9
$CMLJUST
 70
0
  9
$CMLSCALE
 40
20.0
  9
$PROXYGRAPHICS
 70
1
  9
$MEASUREMENT
 70
1
  9
$CELWEIGHT
370
-1
  9
$ENDCAPS
280
0
  9
$JOINSTYLE
280
0
  9
$LWDISPLAY
290
0
  9
$INSUNITS
 70
6
  9
$HYPERLINKBASE
  1

  9
$STYLESHEET
  1

  9
$XEDIT
290
1
  9
$CEPSNTYPE
380
0
  9
$PSTYLEMODE
290
1
  9
$FINGERPRINTGUID
  2
{30B3F832-DA4F-44CE-82B7-CF18C3A67C81}
  9
$VERSIONGUID
  2
{AA6ADC65-7A09-4D5E-8C1E-29DF6123096D}
  9
$EXTNAMES
290
1
  9
$PSVPSCALE
 40
0.0
  9
$OLESTARTUP
290
0
  9
$SORTENTS
280
127
  9
$INDEXCTL
280
0
  9
$HIDETEXT
280
1
  9
$XCLIPFRAME
280
1
  9
$HALOGAP
280
0
  9
$OBSCOLOR
 70
257
  9
$OBSLTYPE
280
0
  9
$INTERSECTIONDISPLAY
280
0
  9
$INTERSECTIONCOLOR
 70
257
  9
$DIMASSOC
280
2
  9
$PROJECTNAME
  1

  9
$CAMERADISPLAY
290
0
  9
$LENSLENGTH
 40
50.0
  9
$CAMERAHEIGHT
 40
0.0
  9
$STEPSPERSEC
 40
24.0
  9
$STEPSIZE
 40
100.0
  9
$3DDWFPREC
 40
2.0
  9
$PSOLWIDTH
 40
0.005
  9
$PSOLHEIGHT
 40
0.08
  9
$LOFTANG1
 40
1.570796326795
  9
$LOFTANG2
 40
1.570796326795
  9
$LOFTMAG1
 40
0.0
  9
$LOFTMAG2
 40
0.0
  9
$LOFTPARAM
 70
7
  9
$LOFTNORMALS
280
1
  9
$LATITUDE
 40
37.795
  9
$LONGITUDE
 40
-122.394
  9
$NORTHDIRECTION
 40
0.0
  9
$TIMEZONE
 70
-8000
  9
$LIGHTGLYPHDISPLAY
280
1
  9
$TILEMODELIGHTSYNCH
280
1
  9
$CMATERIAL
347
20
  9
$SOLIDHIST
280
0
  9
$SHOWHIST
280
1
  9
$DWFFRAME
280
2
  9
$DGNFRAME
280
2
  9
$REALWORLDSCALE
290
1
  9
$INTERFERECOLOR
 62
256
  9
$CSHADOW
280
0
  9
$SHADOWPLANELOCATION
 40
0.0
  0
ENDSEC
  0
SECTION
  2
CLASSES
  0
CLASS
  1
ACDBDICTIONARYWDFLT
  2
AcDbDictionaryWithDefault
  3
ObjectDBX Classes
 90
0
 91
0
280
0
281
0
  0
CLASS
  1
SUN
  2
AcDbSun
  3
SCENEOE
 90
1153
 91
0
280
0
281
0
  0
CLASS
  1
VISUALSTYLE
  2
AcDbVisualStyle
  3
ObjectDBX Classes
 90
4095
 91
0
280
0
281
0
  0
CLASS
  1
MATERIAL
  2
AcDbMaterial
  3
ObjectDBX Classes
 90
1153
 91
0
280
0
281
0
  0
CLASS
  1
SCALE
  2
AcDbScale
  3
ObjectDBX Classes
 90
1153
 91
0
280
0
281
0
  0
CLASS
  1
TABLESTYLE
  2
AcDbTableStyle
  3
ObjectDBX Classes
 90
4095
 91
0
280
0
281
0
  0
CLASS
  1
MLEADERSTYLE
  2
AcDbMLeaderStyle
  3
ACDB_MLEADERSTYLE_CLASS
 90
4095
 91
0
280
0
281
0
  0
CLASS
  1
DICTIONARYVAR
  2
AcDbDictionaryVar
  3
ObjectDBX Classes
 90
0
 91
0
280
0
281
0
  0
CLASS
  1
CELLSTYLEMAP
  2
AcDbCellStyleMap
  3
ObjectDBX Classes
 90
1152
 91
0
280
0
281
0
  0
CLASS
  1
MENTALRAYRENDERSETTINGS
  2
AcDbMentalRayRenderSettings
  3
SCENEOE
 90
1024
 91
0
280
0
281
0
  0
CLASS
  1
ACDBDETAILVIEWSTYLE
  2
AcDbDetailViewStyle
  3
ObjectDBX Classes
 90
1025
 91
0
280
0
281
0
  0
CLASS
  1
ACDBSECTIONVIEWSTYLE
  2
AcDbSectionViewStyle
  3
ObjectDBX Classes
 90
1025
 91
0
280
0
281
0
  0
CLASS
  1
RASTERVARIABLES
  2
AcDbRasterVariables
  3
ISM
 90
0
 91
0
280
0
281
0
  0
CLASS
  1
LAYOUT
  2
AcDbLayout
  3
ObjectDBX Classes
 90
0
 91
0
280
0
281
0
  0
CLASS
  1
ACDBPLACEHOLDER
  2
AcDbPlaceHolder
  3
ObjectDBX Classes
 90
0
 91
0
280
0
281
0
  0
ENDSEC
  0
SECTION
  2
TABLES
  0
TABLE
  2
VPORT
  5
8
330
0
100
AcDbSymbolTable
 70
1
  0
VPORT
  5
23
330
8
100
AcDbSymbolTableRecord
100
AcDbViewportTableRecord
  2
*Active
 70
0
 10
0.0
 20
0.0
 11
1.0
 21
1.0
 12
0.0
 22
0.0
 13
0.0
 23
0.0
 14
0.5
 24
0.5
 15
0.5
 25
0.5
 16
0.0
 26
0.0
 36
1.0
 17
0.0
 27
0.0
 37
0.0
 40
1000.0
 41
1.34
 42
50.0
 43
0.0
 44
0.0
 50
0.0
 51
0.0
 71
0
 72
1000
 73
1
 74
3
 75
0
 76
0
 77
0
 78
0
281
0
 65
0
146
0.0
  0
ENDTAB
  0
TABLE
  2
LTYPE
  5
2
330
0
100
AcDbSymbolTable
 70
3
  0
LTYPE
  5
24
330
2
100
AcDbSymbolTableRecord
100
AcDbLinetypeTableRecord
  2
ByBlock
 70
0
  3

 72
65
 73
0
 40
0.0
  0
LTYPE
  5
25
330
2
100
AcDbSymbolTableRecord
100
AcDbLinetypeTableRecord
  2
ByLayer
 70
0
  3

 72
65
 73
0
 40
0.0
  0
LTYPE
  5
26
330
2
100
AcDbSymbolTableRecord
100
AcDbLinetypeTableRecord
  2
Continuous
 70
0
  3

 72
65
 73
0
 40
0.0
  0
ENDTAB
  0
TABLE
  2
LAYER
  5
1
330
0
100
AcDbSymbolTable
 70
6
  0
LAYER
  5
27
330
1
100
AcDbSymbolTableRecord
100
AcDbLayerTableRecord
  2
0
 70
0
 62
7
  6
Continuous
370
-3
390
13
347
21
  0
LAYER
  5
28
330
1
100
AcDbSymbolTableRecord
100
AcDbLayerTableRecord
  2
Defpoints
 70
0
 62
7
  6
Continuous
290
0
370
-3
390
13
347
21
  0
LAYER
  5
2F
330
1
100
AcDbSymbolTableRecord
100
AcDbLayerTableRecord
  2
LINES
 70
0
 62
7
  6
Continuous
370
-3
390
13
347
21
  0
LAYER
  5
30
330
1
100
AcDbSymbolTableRecord
100
AcDbLayerTableRecord
  2
RECTS
 70
0
 62
7
  6
Continuous
370
-3
390
13
347
21
  0
LAYER
  5
31
330
1
100
AcDbSymbolTableRecord
100
AcDbLayerTableRecord
  2
TEXTS
 70
0
 62
3
  6
Continuous
370
-3
390
13
347
21
  0
LAYER
  5
32
330
1
100
AcDbSymbolTableRecord
100
AcDbLayerTableRecord
  2
POLYLINES
 70
0
 62
4
  6
Continuous
370
-3
390
13
347
21
  0
ENDTAB
  0
TABLE
  2
STYLE
  5
5
330
0
100
AcDbSymbolTable
 70
1
  0
STYLE
  5
29
330
5
100
AcDbSymbolTableRecord
100
AcDbTextStyleTableRecord
  2
Standard
 70
0
 40
0.0
 41
1.0
 50
0.0
 71
0
 42
2.5
  3
txt
  4

  0
ENDTAB
  0
TABLE
  2
VIEW
  5
7
330
0
100
AcDbSymbolTable
 70
0
  0
ENDTAB
  0
TABLE
  2
UCS
  5
6
330
0
100
AcDbSymbolTable
 70
0
  0
ENDTAB
  0
TABLE
  2
APPID
  5
3
330
0
100
AcDbSymbolTable
 70
3
  0
APPID
  5
2A
330
3
100
AcDbSymbolTableRecord
100
AcDbRegAppTableRecord
  2
ACAD
 70
0
  0
APPID
  5
143
330
3
100
AcDbSymbolTableRecord
100
AcDbRegAppTableRecord
  2
HATCHBACKGROUNDCOLOR
 70
0
  0
APPID
  5
144
330
3
100
AcDbSymbolTableRecord
100
AcDbRegAppTableRecord
  2
EZDXF
 70
0
  0
ENDTAB
  0
TABLE
  2
DIMSTYLE
  5
4
330
0
100
AcDbSymbolTable
 70
1
100
AcDbDimStyleTable
  0
DIMSTYLE
105
2B
330
4
100
AcDbSymbolTableRecord
100
AcDbDimStyleTableRecord
  2
Standard
 70
0
 40
1.0
 41
2.5
 42
0.625
 43
3.75
 44
1.25
 45
0.0
 46
0.0
 47
0.0
 48
0.0
 49
2.5
140
2.5
141
2.5
142
0.0
143
0.03937007874
144
1.0
145
0.0
146
1.0
147
0.625
148
0.0
 69
0
 70
0
 71
0
 72
0
 73
0
 74
0
 75
0
 76
0
 77
1
 78
8
 79
3
170
0
171
3
172
1
173
0
174
0
175
0
176
0
177
0
178
0
179
2
271
2
272
2
273
2
274
3
275
0
276
0
277
2
278
44
279
0
280
0
281
0
282
0
283
0
284
8
285
0
286
0
288
0
289
3
290
0
371
-2
372
-2
  0
ENDTAB
  0
TABLE
  2
BLOCK_RECORD
  5
9
330
0
100
AcDbSymbolTable
 70
2
  0
BLOCK_RECORD
  5
17
330
9
100
AcDbSymbolTableRecord
100
AcDbBlockTableRecord
  2
*Model_Space
340
1A
 70
0
280
1
281
0
  0
BLOCK_RECORD
  5
1B
330
9
100
AcDbSymbolTableRecord
100
AcDbBlockTableRecord
  2
*Paper_Space
340
1E
 70
0
280
1
281
0
  0
ENDTAB
  0
ENDSEC
  0
SECTION
  2
BLOCKS
  0
BLOCK
  5
18
330
17
100
AcDbEntity
  8
0
100
AcDbBlockBegin
  2
*Model_Space
 70
0
 10
0.0
 20
0.0
 30
0.0
  3
*Model_Space
  1

  0
ENDBLK
  5
19
330
17
100
AcDbEntity
  8
0
100
AcDbBlockEnd
  0
BLOCK
  5
1C
330
1B
100
AcDbEntity
  8
0
100
AcDbBlockBegin
  2
*Paper_Space
 70
0
 10
0.0
 20
0.0
 30
0.0
  3
*Paper_Space
  1

  0
ENDBLK
  5
1D
330
1B
100
AcDbEntity
  8
0
100
AcDbBlockEnd
  0
ENDSEC
  0
SECTION
  2
ENTITIES
  0
TEXT
  5
33
330
17
100
AcDbEntity
  8
TEXTS
100
AcDbText
 10
507.59399999999994
 20
535.4051505552
 30
0.0
 40
10.945847520000074
  1
O/24D/2*3.031km
100
AcDbText
  0
TEXT
  5
34
330
17
100
AcDbEntity
  8
TEXTS
100
AcDbText
 10
548.4146720323611
 20
520.777809647428
 30
0.0
 40
7.309214464141723
  1
k
100
AcDbText
  0
TEXT
  5
35
330
17
100
AcDbEntity
  8
TEXTS
100
AcDbText
 10
547.0317833863264
 20
516.1136818579124
 30
0.0
 40
7.309214464141723
  1
1
100
AcDbText
  0
TEXT
  5
36
330
17
100
AcDbEntity
  8
TEXTS
100
AcDbText
 10
545.6488947402919
 20
511.44955406839694
 30
0.0
 40
7.309214464141775
  1
.
100
AcDbText
  0
TEXT
  5
37
330
17
100
AcDbEntity
  8
TEXTS
100
AcDbText
 10
544.2660060942574
 20
506.7854262788814
 30
0.0
 40
7.309214464141775
  1
7
100
AcDbText
  0
TEXT
  5
38
330
17
100
AcDbEntity
  8
TEXTS
100
AcDbText
 10
549.7975606783956
 20
514.385525952
 30
0.0
 40
10.951864832070822
  1
m游和坪变
100
AcDbText
  0
LWPOLYLINE
  5
39
330
17
100
AcDbEntity
  8
POLYLINES
100
AcDbPolyline
 90
5
 70
0
 10
598.17
 20
531.9359999999999
 10
598.314
 20
530.928
 10
597.306
 20
530.64
 10
597.162
 20
531.9359999999999
 10
598.17
 20
531.9359999999999
  0
LWPOLYLINE
  5
3A
330
17
100
AcDbEntity
  8
POLYLINES
100
AcDbPolyline
 90
5
 70
0
 10
598.17
 20
531.9359999999999
 10
598.314
 20
530.928
 10
597.306
 20
530.64
 10
597.162
 20
531.9359999999999
 10
598.17
 20
531.9359999999999
  0
LWPOLYLINE
  5
3B
330
17
100
AcDbEntity
  8
POLYLINES
100
AcDbPolyline
 90
5
 70
0
 10
598.314
 20
530.928
 10
598.746
 20
530.208
 10
597.882
 20
529.632
 10
597.306
 20
530.64
 10
598.314
 20
530.928
  0
LWPOLYLINE
  5
3C
330
17
100
AcDbEntity
  8
POLYLINES
100
AcDbPolyline
 90
5
 70
0
 10
598.314
 20
530.928
 10
598.746
 20
530.208
 10
597.882
 20
529.632
 10
597.306
 20
530.64
 10
598.314
 20
530.928
  0
LWPOLYLINE
  5
3D
330
17
100
AcDbEntity
  8
POLYLINES
100
AcDbPolyline
 90
5
 70
0
 10
598.746
 20
530.208
 10
599.322
 20
529.4879999999999
 10
598.602
 20
528.6239999999999
 10
597.882
 20
529.632
 10
598.746
 20
530.208
  0
LWPOLYLINE
  5
3E
330
17
100
AcDbEntity
  8
POLYLINES
100
AcDbPolyline
 90
5
 70
0
 10
598.746
 20
530.208
 10
599.322
 20
529.4879999999999
 10
598.602
 20
528.6239999999999
 10
597.882
 20
529.632
 10
598.746
 20
530.208
  0
LWPOLYLINE
  5
3F
330
17
100
AcDbEntity
  8
POLYLINES
100
AcDbPolyline
 90
5
 70
0
 10
599.322
 20
529.4879999999999
 10
600.042
 20
528.9119999999999
 10
599.61
 20
528.048
 10
598.602
 20
528.6239999999999
 10
599.322
 20
529.4879999999999
  0
LWPOLYLINE
  5
40
330
17
100
AcDbEntity
  8
POLYLINES
100
AcDbPolyline
 90
5
 70
0
 10
599.322
 20
529.4879999999999
 10
600.042
 20
528.9119999999999
 10
599.61
 20
528.048
 10
598.602
 20
528.6239999999999
 10
599.322
 20
529.4879999999999
  0
LWPOLYLINE
  5
41
330
17
100
AcDbEntity
  8
POLYLINES
100
AcDbPolyline
 90
5
 70
0
 10
600.042
 20
528.9119999999999
 10
600.906
 20
528.7679999999999
 10
600.762
 20
527.616
 10
599.61
 20
528.048
 10
600.042
 20
528.9119999999999
  0
LWPOLYLINE
  5
42
330
17
100
AcDbEntity
  8
POLYLINES
100
AcDbPolyline
 90
5
 70
0
 10
600.042
 20
528.9119999999999
 10
600.906
 20
528.7679999999999
 10
600.762
 20
527.616
 10
599.61
 20
528.048
 10
600.042
 20
528.9119999999999
  0
LWPOLYLINE
  5
43
330
17
100
AcDbEntity
  8
POLYLINES
100
AcDbPolyline
 90
5
 70
0
 10
600.906
 20
528.7679999999999
 10
601.914
 20
528.7679999999999
 10
602.058
 20
527.616
 10
600.762
 20
527.616
 10
600.906
 20
528.7679999999999
  0
LWPOLYLINE
  5
44
330
17
100
AcDbEntity
  8
POLYLINES
100
AcDbPolyline
 90
5
 70
0
 10
600.906
 20
528.7679999999999
 10
601.914
 20
528.7679999999999
 10
602.058
 20
527.616
 10
600.762
 20
527.616
 10
600.906
 20
528.7679999999999
  0
LWPOLYLINE
  5
45
330
17
100
AcDbEntity
  8
POLYLINES
100
AcDbPolyline
 90
5
 70
0
 10
601.914
 20
528.7679999999999
 10
602.778
 20
528.9119999999999
 10
603.21
 20
528.048
 10
602.058
 20
527.616
 10
601.914
 20
528.7679999999999
  0
LWPOLYLINE
  5
46
330
17
100
AcDbEntity
  8
POLYLINES
100
AcDbPolyline
 90
5
 70
0
 10
601.914
 20
528.7679999999999
 10
602.778
 20
528.9119999999999
 10
603.21
 20
528.048
 10
602.058
 20
527.616
 10
601.914
 20
528.7679999999999
  0
LWPOLYLINE
  5
47
330
17
100
AcDbEntity
  8
POLYLINES
100
AcDbPolyline
 90
5
 70
0
 10
602.778
 20
528.9119999999999
 10
603.4979999999999
 20
529.4879999999999
 10
604.218
 20
528.6239999999999
 10
603.21
 20
528.048
 10
602.778
 20
528.9119999999999
  0
LWPOLYLINE
  5
48
330
17
100
AcDbEntity
  8
POLYLINES
100
AcDbPolyline
 90
5
 70
0
 10
602.778
 20
528.9119999999999
 10
603.4979999999999
 20
529.4879999999999
 10
604.218
 20
528.6239999999999
 10
603.21
 20
528.048
 10
602.778
 20
528.9119999999999
  0
LWPOLYLINE
  5
49
330
17
100
AcDbEntity
  8
POLYLINES
100
AcDbPolyline
 90
5
 70
0
 10
603.4979999999999
 20
529.4879999999999
 10
604.074
 20
530.208
 10
604.938
 20
529.632
 10
604.218
 20
528.6239999999999
 10
603.4979999999999
 20
529.4879999999999
  0
LWPOLYLINE
  5
4A
330
17
100
AcDbEntity
  8
POLYLINES
100
AcDbPolyline
 90
5
 70
0
 10
603.4979999999999
 20
529.4879999999999
 10
604.074
 20
530.208
 10
604.938
 20
529.632
 10
604.218
 20
528.6239999999999
 10
603.4979999999999
 20
529.4879999999999
  0
LWPOLYLINE
  5
4B
330
17
100
AcDbEntity
  8
POLYLINES
100
AcDbPolyline
 90
5
 70
0
 10
604.074
 20
530.208
 10
604.506
 20
530.928
 10
605.514
 20
530.64
 10
604.938
 20
529.632
 10
604.074
 20
530.208
  0
LWPOLYLINE
  5
4C
330
17
100
AcDbEntity
  8
POLYLINES
100
AcDbPolyline
 90
5
 70
0
 10
604.074
 20
530.208
 10
604.506
 20
530.928
 10
605.514
 20
530.64
 10
604.938
 20
529.632
 10
604.074
 20
530.208
  0
LWPOLYLINE
  5
4D
330
17
100
AcDbEntity
  8
POLYLINES
100
AcDbPolyline
 90
5
 70
0
 10
604.506
 20
530.928
 10
604.65
 20
531.9359999999999
 10
605.658
 20
531.9359999999999
 10
605.514
 20
530.64
 10
604.506
 20
530.928
  0
LWPOLYLINE
  5
4E
330
17
100
AcDbEntity
  8
POLYLINES
100
AcDbPolyline
 90
5
 70
0
 10
604.506
 20
530.928
 10
604.65
 20
531.9359999999999
 10
605.658
 20
531.9359999999999
 10
605.514
 20
530.64
 10
604.506
 20
530.928
  0
LWPOLYLINE
  5
4F
330
17
100
AcDbEntity
  8
POLYLINES
100
AcDbPolyline
 90
5
 70
0
 10
604.65
 20
531.9359999999999
 10
604.506
 20
532.8
 10
605.514
 20
533.088
 10
605.658
 20
531.9359999999999
 10
604.65
 20
531.9359999999999
  0
LWPOLYLINE
  5
50
330
17
100
AcDbEntity
  8
POLYLINES
100
AcDbPolyline
 90
5
 70
0
 10
604.65
 20
531.9359999999999
 10
604.506
 20
532.8
 10
605.514
 20
533.088
 10
605.658
 20
531.9359999999999
 10
604.65
 20
531.9359999999999
  0
LWPOLYLINE
  5
51
330
17
100
AcDbEntity
  8
POLYLINES
100
AcDbPolyline
 90
5
 70
0
 10
604.506
 20
532.8
 10
604.074
 20
533.664
 10
604.938
 20
534.24
 10
605.514
 20
533.088
 10
604.506
 20
532.8
  0
LWPOLYLINE
  5
52
330
17
100
AcDbEntity
  8
POLYLINES
100
AcDbPolyline
 90
5
 70
0
 10
604.506
 20
532.8
 10
604.074
 20
533.664
 10
604.938
 20
534.24
 10
605.514
 20
533.088
 10
604.506
 20
532.8
  0
LWPOLYLINE
  5
53
330
17
100
AcDbEntity
  8
POLYLINES
100
AcDbPolyline
 90
5
 70
0
 10
604.074
 20
533.664
 10
603.4979999999999
 20
534.24
 10
604.218
 20
535.1039999999999
 10
604.938
 20
534.24
 10
604.074
 20
533.664
  0
LWPOLYLINE
  5
54
330
17
100
AcDbEntity
  8
POLYLINES
100
AcDbPolyline
 90
5
 70
0
 10
604.074
 20
533.664
 10
603.4979999999999
 20
534.24
 10
604.218
 20
535.1039999999999
 10
604.938
 20
534.24
 10
604.074
 20
533.664
  0
LWPOLYLINE
  5
55
330
17
100
AcDbEntity
  8
POLYLINES
100
AcDbPolyline
 90
5
 70
0
 10
603.4979999999999
 20
534.24
 10
602.778
 20
534.8159999999999
 10
603.21
 20
535.68
 10
604.218
 20
535.1039999999999
 10
603.4979999999999
 20
534.24
  0
LWPOLYLINE
  5
56
330
17
100
AcDbEntity
  8
POLYLINES
100
AcDbPolyline
 90
5
 70
0
 10
603.4979999999999
 20
534.24
 10
602.778
 20
534.8159999999999
 10
603.21
 20
535.68
 10
604.218
 20
535.1039999999999
 10
603.4979999999999
 20
534.24
  0
LWPOLYLINE
  5
57
330
17
100
AcDbEntity
  8
POLYLINES
100
AcDbPolyline
 90
5
 70
0
 10
602.778
 20
534.8159999999999
 10
601.914
 20
535.1039999999999
 10
602.058
 20
536.112
 10
603.21
 20
535.68
 10
602.778
 20
534.8159999999999
  0
LWPOLYLINE
  5
58
330
17
100
AcDbEntity
  8
POLYLINES
100
AcDbPolyline
 90
5
 70
0
 10
602.778
 20
534.8159999999999
 10
601.914
 20
535.1039999999999
 10
602.058
 20
536.112
 10
603.21
 20
535.68
 10
602.778
 20
534.8159999999999
  0
LWPOLYLINE
  5
59
330
17
100
AcDbEntity
  8
POLYLINES
100
AcDbPolyline
 90
5
 70
0
 10
601.914
 20
535.1039999999999
 10
600.906
 20
535.1039999999999
 10
600.762
 20
536.112
 10
602.058
 20
536.112
 10
601.914
 20
535.1039999999999
  0
LWPOLYLINE
  5
5A
330
17
100
AcDbEntity
  8
POLYLINES
100
AcDbPolyline
 90
5
 70
0
 10
601.914
 20
535.1039999999999
 10
600.906
 20
535.1039999999999
 10
600.762
 20
536.112
 10
602.058
 20
536.112
 10
601.914
 20
535.1039999999999
  0
LWPOLYLINE
  5
5B
330
17
100
AcDbEntity
  8
POLYLINES
100
AcDbPolyline
 90
5
 70
0
 10
600.906
 20
535.1039999999999
 10
600.042
 20
534.8159999999999
 10
599.61
 20
535.68
 10
600.762
 20
536.112
 10
600.906
 20
535.1039999999999
  0
LWPOLYLINE
  5
5C
330
17
100
AcDbEntity
  8
POLYLINES
100
AcDbPolyline
 90
5
 70
0
 10
600.906
 20
535.1039999999999
 10
600.042
 20
534.8159999999999
 10
599.61
 20
535.68
 10
600.762
 20
536.112
 10
600.906
 20
535.1039999999999
  0
LWPOLYLINE
  5
5D
330
17
100
AcDbEntity
  8
POLYLINES
100
AcDbPolyline
 90
5
 70
0
 10
600.042
 20
534.8159999999999
 10
599.322
 20
534.24
 10
598.602
 20
535.1039999999999
 10
599.61
 20
535.68
 10
600.042
 20
534.8159999999999
  0
LWPOLYLINE
  5
5E
330
17
100
AcDbEntity
  8
POLYLINES
100
AcDbPolyline
 90
5
 70
0
 10
600.042
 20
534.8159999999999
 10
599.322
 20
534.24
 10
598.602
 20
535.1039999999999
 10
599.61
 20
535.68
 10
600.042
 20
534.8159999999999
  0
LWPOLYLINE
  5
5F
330
17
100
AcDbEntity
  8
POLYLINES
100
AcDbPolyline
 90
5
 70
0
 10
599.322
 20
534.24
 10
598.746
 20
533.664
 10
597.882
 20
534.24
 10
598.602
 20
535.1039999999999
 10
599.322
 20
534.24
  0
LWPOLYLINE
  5
60
330
17
100
AcDbEntity
  8
POLYLINES
100
AcDbPolyline
 90
5
 70
0
 10
599.322
 20
534.24
 10
598.746
 20
533.664
 10
597.882
 20
534.24
 10
598.602
 20
535.1039999999999
 10
599.322
 20
534.24
  0
LWPOLYLINE
  5
61
330
17
100
AcDbEntity
  8
POLYLINES
100
AcDbPolyline
 90
5
 70
0
 10
598.746
 20
533.664
 10
598.314
 20
532.8
 10
597.306
 20
533.088
 10
597.882
 20
534.24
 10
598.746
 20
533.664
  0
LWPOLYLINE
  5
62
330
17
100
AcDbEntity
  8
POLYLINES
100
AcDbPolyline
 90
5
 70
0
 10
598.746
 20
533.664
 10
598.314
 20
532.8
 10
597.306
 20
533.088
 10
597.882
 20
534.24
 10
598.746
 20
533.664
  0
LWPOLYLINE
  5
63
330
17
100
AcDbEntity
  8
POLYLINES
100
AcDbPolyline
 90
5
 70
0
 10
598.314
 20
532.8
 10
598.17
 20
531.9359999999999
 10
597.162
 20
531.9359999999999
 10
597.306
 20
533.088
 10
598.314
 20
532.8
  0
LWPOLYLINE
  5
64
330
17
100
AcDbEntity
  8
POLYLINES
100
AcDbPolyline
 90
5
 70
0
 10
598.314
 20
532.8
 10
598.17
 20
531.9359999999999
 10
597.162
 20
531.9359999999999
 10
597.306
 20
533.088
 10
598.314
 20
532.8
  0
TEXT
  5
65
330
17
100
AcDbEntity
  8
TEXTS
100
AcDbText
 10
505.28999999999996
 20
608.705525952
 30
0.0
 40
11.58664334640701
  1
马迹塘电厂/1
100
AcDbText
  0
TEXT
  5
66
330
17
100
AcDbEntity
  8
TEXTS
100
AcDbText
 10
537.6899999999999
 20
670.193525952
 30
0.0
 40
14.59451519999992
  1
武潭变
100
AcDbText
  0
LWPOLYLINE
  5
67
330
17
100
AcDbEntity
  8
POLYLINES
100
AcDbPolyline
 90
5
 70
0
 10
579.7379999999999
 20
674.496
 10
579.882
 20
673.632
 10
578.874
 20
673.3439999999999
 10
578.73
 20
674.496
 10
579.7379999999999
 20
674.496
  0
LWPOLYLINE
  5
68
330
17
100
AcDbEntity
  8
POLYLINES
100
AcDbPolyline
 90
5
 70
0
 10
579.7379999999999
 20
674.496
 10
579.882
 20
673.632
 10
578.874
 20
673.3439999999999
 10
578.73
 20
674.496
 10
579.7379999999999
 20
674.496
  0
LWPOLYLINE
  5
69
330
17
100
AcDbEntity
  8
POLYLINES
100
AcDbPolyline
 90
5
 70
0
 10
579.882
 20
673.632
 10
580.314
 20
672.7679999999999
 10
579.306
 20
672.1919999999999
 10
578.874
 20
673.3439999999999
 10
579.882
 20
673.632
  0
LWPOLYLINE
  5
6A
330
17
100
AcDbEntity
  8
POLYLINES
100
AcDbPolyline
 90
5
 70
0
 10
579.882
 20
673.632
 10
580.314
 20
672.7679999999999
 10
579.306
 20
672.1919999999999
 10
578.874
 20
673.3439999999999
 10
579.882
 20
673.632
  0
LWPOLYLINE
  5
6B
330
17
100
AcDbEntity
  8
POLYLINES
100
AcDbPolyline
 90
5
 70
0
 10
580.314
 20
672.7679999999999
 10
580.89
 20
672.048
 10
580.17
 20
671.328
 10
579.306
 20
672.1919999999999
 10
580.314
 20
672.7679999999999
  0
LWPOLYLINE
  5
6C
330
17
100
AcDbEntity
  8
POLYLINES
100
AcDbPolyline
 90
5
 70
0
 10
580.314
 20
672.7679999999999
 10
580.89
 20
672.048
 10
580.17
 20
671.328
 10
579.306
 20
672.1919999999999
 10
580.314
 20
672.7679999999999
  0
LWPOLYLINE
  5
6D
330
17
100
AcDbEntity
  8
POLYLINES
100
AcDbPolyline
 90
5
 70
0
 10
580.89
 20
672.048
 10
581.61
 20
671.616
 10
581.178
 20
670.608
 10
580.17
 20
671.328
 10
580.89
 20
672.048
  0
LWPOLYLINE
  5
6E
330
17
100
AcDbEntity
  8
POLYLINES
100
AcDbPolyline
 90
5
 70
0
 10
580.89
 20
672.048
 10
581.61
 20
671.616
 10
581.178
 20
670.608
 10
580.17
 20
671.328
 10
580.89
 20
672.048
  0
LWPOLYLINE
  5
6F
330
17
100
AcDbEntity
  8
POLYLINES
100
AcDbPolyline
 90
5
 70
0
 10
581.61
 20
671.616
 10
582.4739999999999
 20
671.328
 10
582.33
 20
670.3199999999999
 10
581.178
 20
670.608
 10
581.61
 20
671.616
  0
LWPOLYLINE
  5
70
330
17
100
AcDbEntity
  8
POLYLINES
100
AcDbPolyline
 90
5
 70
0
 10
581.61
 20
671.616
 10
582.4739999999999
 20
671.328
 10
582.33
 20
670.3199999999999
 10
581.178
 20
670.608
 10
581.61
 20
671.616
  0
LWPOLYLINE
  5
71
330
17
100
AcDbEntity
  8
POLYLINES
100
AcDbPolyline
 90
5
 70
0
 10
582.4739999999999
 20
671.328
 10
583.338
 20
671.328
 10
583.482
 20
670.3199999999999
 10
582.33
 20
670.3199999999999
 10
582.4739999999999
 20
671.328
  0
LWPOLYLINE
  5
72
330
17
100
AcDbEntity
  8
POLYLINES
100
AcDbPolyline
 90
5
 70
0
 10
582.4739999999999
 20
671.328
 10
583.338
 20
671.328
 10
583.482
 20
670.3199999999999
 10
582.33
 20
670.3199999999999
 10
582.4739999999999
 20
671.328
  0
LWPOLYLINE
  5
73
330
17
100
AcDbEntity
  8
POLYLINES
100
AcDbPolyline
 90
5
 70
0
 10
583.338
 20
671.328
 10
584.202
 20
671.616
 10
584.634
 20
670.608
 10
583.482
 20
670.3199999999999
 10
583.338
 20
671.328
  0
LWPOLYLINE
  5
74
330
17
100
AcDbEntity
  8
POLYLINES
100
AcDbPolyline
 90
5
 70
0
 10
583.338
 20
671.328
 10
584.202
 20
671.616
 10
584.634
 20
670.608
 10
583.482
 20
670.3199999999999
 10
583.338
 20
671.328
  0
LWPOLYLINE
  5
75
330
17
100
AcDbEntity
  8
POLYLINES
100
AcDbPolyline
 90
5
 70
0
 10
584.202
 20
671.616
 10
585.066
 20
672.048
 10
585.786
 20
671.328
 10
584.634
 20
670.608
 10
584.202
 20
671.616
  0
LWPOLYLINE
  5
76
330
17
100
AcDbEntity
  8
POLYLINES
100
AcDbPolyline
 90
5
 70
0
 10
584.202
 20
671.616
 10
585.066
 20
672.048
 10
585.786
 20
671.328
 10
584.634
 20
670.608
 10
584.202
 20
671.616
  0
LWPOLYLINE
  5
77
330
17
100
AcDbEntity
  8
POLYLINES
100
AcDbPolyline
 90
5
 70
0
 10
585.066
 20
672.048
 10
585.6419999999999
 20
672.7679999999999
 10
586.506
 20
672.1919999999999
 10
585.786
 20
671.328
 10
585.066
 20
672.048
  0
LWPOLYLINE
  5
78
330
17
100
AcDbEntity
  8
POLYLINES
100
AcDbPolyline
 90
5
 70
0
 10
585.066
 20
672.048
 10
585.6419999999999
 20
672.7679999999999
 10
586.506
 20
672.1919999999999
 10
585.786
 20
671.328
 10
585.066
 20
672.048
  0
LWPOLYLINE
  5
79
330
17
100
AcDbEntity
  8
POLYLINES
100
AcDbPolyline
 90
5
 70
0
 10
585.6419999999999
 20
672.7679999999999
 10
585.93
 20
673.632
 10
587.082
 20
673.3439999999999
 10
586.506
 20
672.1919999999999
 10
585.6419999999999
 20
672.7679999999999
  0
LWPOLYLINE
  5
7A
330
17
100
AcDbEntity
  8
POLYLINES
100
AcDbPolyline
 90
5
 70
0
 10
585.6419999999999
 20
672.7679999999999
 10
585.93
 20
673.632
 10
587.082
 20
673.3439999999999
 10
586.506
 20
672.1919999999999
 10
585.6419999999999
 20
672.7679999999999
  0
LWPOLYLINE
  5
7B
330
17
100
AcDbEntity
  8
POLYLINES
100
AcDbPolyline
 90
5
 70
0
 10
585.93
 20
673.632
 10
586.074
 20
674.496
 10
587.226
 20
674.496
 10
587.082
 20
673.3439999999999
 10
585.93
 20
673.632
  0
LWPOLYLINE
  5
7C
330
17
100
AcDbEntity
  8
POLYLINES
100
AcDbPolyline
 90
5
 70
0
 10
585.93
 20
673.632
 10
586.074
 20
674.496
 10
587.226
 20
674.496
 10
587.082
 20
673.3439999999999
 10
585.93
 20
673.632
  0
LWPOLYLINE
  5
7D
330
17
100
AcDbEntity
  8
POLYLINES
100
AcDbPolyline
 90
5
 70
0
 10
586.074
 20
674.496
 10
585.93
 20
675.3599999999999
 10
587.082
 20
675.6479999999999
 10
587.226
 20
674.496
 10
586.074
 20
674.496
  0
LWPOLYLINE
  5
7E
330
17
100
AcDbEntity
  8
POLYLINES
100
AcDbPolyline
 90
5
 70
0
 10
586.074
 20
674.496
 10
585.93
 20
675.3599999999999
 10
587.082
 20
675.6479999999999
 10
587.226
 20
674.496
 10
586.074
 20
674.496
  0
LWPOLYLINE
  5
7F
330
17
100
AcDbEntity
  8
POLYLINES
100
AcDbPolyline
 90
5
 70
0
 10
585.93
 20
675.3599999999999
 10
585.6419999999999
 20
676.2239999999999
 10
586.506
 20
676.8
 10
587.082
 20
675.6479999999999
 10
585.93
 20
675.3599999999999
  0
LWPOLYLINE
  5
80
330
17
100
AcDbEntity
  8
POLYLINES
100
AcDbPolyline
 90
5
 70
0
 10
585.93
 20
675.3599999999999
 10
585.6419999999999
 20
676.2239999999999
 10
586.506
 20
676.8
 10
587.082
 20
675.6479999999999
 10
585.93
 20
675.3599999999999
  0
LWPOLYLINE
  5
81
330
17
100
AcDbEntity
  8
POLYLINES
100
AcDbPolyline
 90
5
 70
0
 10
585.6419999999999
 20
676.2239999999999
 10
585.066
 20
676.944
 10
585.786
 20
677.664
 10
586.506
 20
676.8
 10
585.6419999999999
 20
676.2239999999999
  0
LWPOLYLINE
  5
82
330
17
100
AcDbEntity
  8
POLYLINES
100
AcDbPolyline
 90
5
 70
0
 10
585.6419999999999
 20
676.2239999999999
 10
585.066
 20
676.944
 10
585.786
 20
677.664
 10
586.506
 20
676.8
 10
585.6419999999999
 20
676.2239999999999
  0
LWPOLYLINE
  5
83
330
17
100
AcDbEntity
  8
POLYLINES
100
AcDbPolyline
 90
5
 70
0
 10
585.066
 20
676.944
 10
584.202
 20
677.376
 10
584.634
 20
678.3839999999999
 10
585.786
 20
677.664
 10
585.066
 20
676.944
  0
LWPOLYLINE
  5
84
330
17
100
AcDbEntity
  8
POLYLINES
100
AcDbPolyline
 90
5
 70
0
 10
585.066
 20
676.944
 10
584.202
 20
677.376
 10
584.634
 20
678.3839999999999
 10
585.786
 20
677.664
 10
585.066
 20
676.944
  0
LWPOLYLINE
  5
85
330
17
100
AcDbEntity
  8
POLYLINES
100
AcDbPolyline
 90
5
 70
0
 10
584.202
 20
677.376
 10
583.338
 20
677.664
 10
583.482
 20
678.6719999999999
 10
584.634
 20
678.3839999999999
 10
584.202
 20
677.376
  0
LWPOLYLINE
  5
86
330
17
100
AcDbEntity
  8
POLYLINES
100
AcDbPolyline
 90
5
 70
0
 10
584.202
 20
677.376
 10
583.338
 20
677.664
 10
583.482
 20
678.6719999999999
 10
584.634
 20
678.3839999999999
 10
584.202
 20
677.376
  0
LWPOLYLINE
  5
87
330
17
100
AcDbEntity
  8
POLYLINES
100
AcDbPolyline
 90
5
 70
0
 10
583.338
 20
677.664
 10
582.4739999999999
 20
677.664
 10
582.33
 20
678.6719999999999
 10
583.482
 20
678.6719999999999
 10
583.338
 20
677.664
  0
LWPOLYLINE
  5
88
330
17
100
AcDbEntity
  8
POLYLINES
100
AcDbPolyline
 90
5
 70
0
 10
583.338
 20
677.664
 10
582.4739999999999
 20
677.664
 10
582.33
 20
678.6719999999999
 10
583.482
 20
678.6719999999999
 10
583.338
 20
677.664
  0
LWPOLYLINE
  5
89
330
17
100
AcDbEntity
  8
POLYLINES
100
AcDbPolyline
 90
5
 70
0
 10
582.4739999999999
 20
677.664
 10
581.61
 20
677.376
 10
581.178
 20
678.3839999999999
 10
582.33
 20
678.6719999999999
 10
582.4739999999999
 20
677.664
  0
LWPOLYLINE
  5
8A
330
17
100
AcDbEntity
  8
POLYLINES
100
AcDbPolyline
 90
5
 70
0
 10
582.4739999999999
 20
677.664
 10
581.61
 20
677.376
 10
581.178
 20
678.3839999999999
 10
582.33
 20
678.6719999999999
 10
582.4739999999999
 20
677.664
  0
LWPOLYLINE
  5
8B
330
17
100
AcDbEntity
  8
POLYLINES
100
AcDbPolyline
 90
5
 70
0
 10
581.61
 20
677.376
 10
580.89
 20
676.944
 10
580.17
 20
677.664
 10
581.178
 20
678.3839999999999
 10
581.61
 20
677.376
  0
LWPOLYLINE
  5
8C
330
17
100
AcDbEntity
  8
POLYLINES
100
AcDbPolyline
 90
5
 70
0
 10
581.61
 20
677.376
 10
580.89
 20
676.944
 10
580.17
 20
677.664
 10
581.178
 20
678.3839999999999
 10
581.61
 20
677.376
  0
LWPOLYLINE
  5
8D
330
17
100
AcDbEntity
  8
POLYLINES
100
AcDbPolyline
 90
5
 70
0
 10
580.89
 20
676.944
 10
580.314
 20
676.2239999999999
 10
579.306
 20
676.8
 10
580.17
 20
677.664
 10
580.89
 20
676.944
  0
LWPOLYLINE
  5
8E
330
17
100
AcDbEntity
  8
POLYLINES
100
AcDbPolyline
 90
5
 70
0
 10
580.89
 20
676.944
 10
580.314
 20
676.2239999999999
 10
579.306
 20
676.8
 10
580.17
 20
677.664
 10
580.89
 20
676.944
  0
LWPOLYLINE
  5
8F
330
17
100
AcDbEntity
  8
POLYLINES
100
AcDbPolyline
 90
5
 70
0
 10
580.314
 20
676.2239999999999
 10
579.882
 20
675.3599999999999
 10
578.874
 20
675.6479999999999
 10
579.306
 20
676.8
 10
580.314
 20
676.2239999999999
  0
LWPOLYLINE
  5
90
330
17
100
AcDbEntity
  8
POLYLINES
100
AcDbPolyline
 90
5
 70
0
 10
580.314
 20
676.2239999999999
 10
579.882
 20
675.3599999999999
 10
578.874
 20
675.6479999999999
 10
579.306
 20
676.8
 10
580.314
 20
676.2239999999999
  0
LWPOLYLINE
  5
91
330
17
100
AcDbEntity
  8
POLYLINES
100
AcDbPolyline
 90
5
 70
0
 10
579.882
 20
675.3599999999999
 10
579.7379999999999
 20
674.496
 10
578.73
 20
674.496
 10
578.874
 20
675.6479999999999
 10
579.882
 20
675.3599999999999
  0
LWPOLYLINE
  5
92
330
17
100
AcDbEntity
  8
POLYLINES
100
AcDbPolyline
 90
5
 70
0
 10
579.882
 20
675.3599999999999
 10
579.7379999999999
 20
674.496
 10
578.73
 20
674.496
 10
578.874
 20
675.6479999999999
 10
579.882
 20
675.3599999999999
  0
LINE
  5
93
330
17
100
AcDbEntity
  8
LINES
100
AcDbLine
 10
598.53
 20
534.1679999999999
 30
0.0
 11
570.162
 21
551.448
 31
0.0
  0
LINE
  5
94
330
17
100
AcDbEntity
  8
LINES
100
AcDbLine
 10
598.53
 20
534.1679999999999
 30
0.0
 11
570.162
 21
551.448
 31
0.0
  0
LINE
  5
95
330
17
100
AcDbEntity
  8
LINES
100
AcDbLine
 10
565.914
 20
534.9599999999999
 30
0.0
 11
596.946
 21
530.64
 31
0.0
  0
LINE
  5
96
330
17
100
AcDbEntity
  8
LINES
100
AcDbLine
 10
565.914
 20
534.9599999999999
 30
0.0
 11
596.946
 21
530.64
 31
0.0
  0
LINE
  5
97
330
17
100
AcDbEntity
  8
LINES
100
AcDbLine
 10
570.162
 20
551.448
 30
0.0
 11
581.682
 21
610.632
 31
0.0
  0
LINE
  5
98
330
17
100
AcDbEntity
  8
LINES
100
AcDbLine
 10
570.162
 20
551.448
 30
0.0
 11
581.682
 21
610.632
 31
0.0
  0
TEXT
  5
99
330
17
100
AcDbEntity
  8
TEXTS
100
AcDbText
 10
566.3642864595998
 20
598.566056018341
 30
0.0
 40
6.468901750031319
  1
k
100
AcDbText
  0
TEXT
  5
9A
330
17
100
AcDbEntity
  8
TEXTS
100
AcDbText
 10
565.39623084011
 20
593.7985264559198
 30
0.0
 40
6.468901750031319
  1
4
100
AcDbText
  0
TEXT
  5
9B
330
17
100
AcDbEntity
  8
TEXTS
100
AcDbText
 10
564.42817522062
 20
589.0309968934987
 30
0.0
 40
6.468901750031319
  1
1
100
AcDbText
  0
TEXT
  5
9C
330
17
100
AcDbEntity
  8
TEXTS
100
AcDbText
 10
563.4601196011301
 20
584.2634673310775
 30
0.0
 40
6.468901750031319
  1
.
100
AcDbText
  0
TEXT
  5
9D
330
17
100
AcDbEntity
  8
TEXTS
100
AcDbText
 10
562.4920639816402
 20
579.4959377686565
 30
0.0
 40
6.468901750031319
  1
2
100
AcDbText
  0
TEXT
  5
9E
330
17
100
AcDbEntity
  8
TEXTS
100
AcDbText
 10
561.5240083621503
 20
574.7284082062354
 30
0.0
 40
6.468901750031319
  1
/
100
AcDbText
  0
TEXT
  5
9F
330
17
100
AcDbEntity
  8
TEXTS
100
AcDbText
 10
560.5559527426603
 20
569.9608786438142
 30
0.0
 40
6.468901750031319
  1
D
100
AcDbText
  0
TEXT
  5
A0
330
17
100
AcDbEntity
  8
TEXTS
100
AcDbText
 10
559.5878971231705
 20
565.1933490813931
 30
0.0
 40
6.468901750031319
  1
2
100
AcDbText
  0
TEXT
  5
A1
330
17
100
AcDbEntity
  8
TEXTS
100
AcDbText
 10
558.6198415036805
 20
560.425819518972
 30
0.0
 40
6.468901750031319
  1
1
100
AcDbText
  0
TEXT
  5
A2
330
17
100
AcDbEntity
  8
TEXTS
100
AcDbText
 10
557.6517858841906
 20
555.6582899565509
 30
0.0
 40
6.468901750031319
  1
/
100
AcDbText
  0
TEXT
  5
A3
330
17
100
AcDbEntity
  8
TEXTS
100
AcDbText
 10
556.6837302647007
 20
550.8907603941298
 30
0.0
 40
6.468901750031319
  1
A
100
AcDbText
  0
LINE
  5
A4
330
17
100
AcDbEntity
  8
LINES
100
AcDbLine
 10
589.674
 20
619.632
 30
0.0
 11
573.69
 21
619.632
 31
0.0
  0
LINE
  5
A5
330
17
100
AcDbEntity
  8
LINES
100
AcDbLine
 10
589.674
 20
619.632
 30
0.0
 11
573.69
 21
619.632
 31
0.0
  0
LINE
  5
A6
330
17
100
AcDbEntity
  8
LINES
100
AcDbLine
 10
589.674
 20
610.56
 30
0.0
 11
589.674
 21
619.632
 31
0.0
  0
LINE
  5
A7
330
17
100
AcDbEntity
  8
LINES
100
AcDbLine
 10
589.674
 20
610.56
 30
0.0
 11
589.674
 21
619.632
 31
0.0
  0
LINE
  5
A8
330
17
100
AcDbEntity
  8
LINES
100
AcDbLine
 10
573.69
 20
610.56
 30
0.0
 11
589.674
 21
610.56
 31
0.0
  0
LINE
  5
A9
330
17
100
AcDbEntity
  8
LINES
100
AcDbLine
 10
573.69
 20
610.56
 30
0.0
 11
589.674
 21
610.56
 31
0.0
  0
LINE
  5
AA
330
17
100
AcDbEntity
  8
LINES
100
AcDbLine
 10
573.69
 20
619.632
 30
0.0
 11
573.69
 21
610.56
 31
0.0
  0
LINE
  5
AB
330
17
100
AcDbEntity
  8
LINES
100
AcDbLine
 10
573.69
 20
619.632
 30
0.0
 11
573.69
 21
610.56
 31
0.0
  0
LINE
  5
AC
330
17
100
AcDbEntity
  8
LINES
100
AcDbLine
 10
618.4739999999999
 20
647.928
 30
0.0
 11
582.978
 21
670.824
 31
0.0
  0
LINE
  5
AD
330
17
100
AcDbEntity
  8
LINES
100
AcDbLine
 10
618.4739999999999
 20
647.928
 30
0.0
 11
582.978
 21
670.824
 31
0.0
  0
LINE
  5
AE
330
17
100
AcDbEntity
  8
LINES
100
AcDbLine
 10
590.826
 20
615.7439999999999
 30
0.0
 11
618.4739999999999
 21
647.928
 31
0.0
  0
LINE
  5
AF
330
17
100
AcDbEntity
  8
LINES
100
AcDbLine
 10
590.826
 20
615.7439999999999
 30
0.0
 11
618.4739999999999
 21
647.928
 31
0.0
  0
TEXT
  5
B0
330
17
100
AcDbEntity
  8
TEXTS
100
AcDbText
 10
599.6166690795636
 20
615.0287676026354
 30
0.0
 40
10.483224558321426
  1
2 4D
100
AcDbText
  0
TEXT
  5
B1
330
17
100
AcDbEntity
  8
TEXTS
100
AcDbText
 10
589.838393222827
 20
605.9550525868334
 30
0.0
 40
10.584019395209372
  1
A
100
AcDbText
  0
TEXT
  5
B2
330
17
100
AcDbEntity
  8
TEXTS
100
AcDbText
 10
567.3323420790898
 20
603.333585580762
 30
0.0
 40
6.468901750031319
  1
m
100
AcDbText
  0
LINE
  5
B3
330
17
100
AcDbEntity
  8
LINES
100
AcDbLine
 10
630.6419999999999
 20
653.832
 30
0.0
 11
586.578
 21
673.632
 31
0.0
  0
LINE
  5
B4
330
17
100
AcDbEntity
  8
LINES
100
AcDbLine
 10
630.6419999999999
 20
653.832
 30
0.0
 11
586.578
 21
673.632
 31
0.0
  0
TEXT
  5
B5
330
17
100
AcDbEntity
  8
TEXTS
100
AcDbText
 10
587.833508526106
 20
654.545758109822
 30
0.0
 40
9.889351033615336
  1
O/24D/14km4 m
100
AcDbText
  0
LINE
  5
B6
330
17
100
AcDbEntity
  8
LINES
100
AcDbLine
 10
605.514
 20
533.808
 30
0.0
 11
658.29
 21
553.1759999999999
 31
0.0
  0
LINE
  5
B7
330
17
100
AcDbEntity
  8
LINES
100
AcDbLine
 10
605.514
 20
533.808
 30
0.0
 11
658.29
 21
553.1759999999999
 31
0.0
  0
LINE
  5
B8
330
17
100
AcDbEntity
  8
LINES
100
AcDbLine
 10
639.5699999999999
 20
644.4
 30
0.0
 11
630.6419999999999
 21
653.832
 31
0.0
  0
LINE
  5
B9
330
17
100
AcDbEntity
  8
LINES
100
AcDbLine
 10
639.5699999999999
 20
644.4
 30
0.0
 11
630.6419999999999
 21
653.832
 31
0.0
  0
LINE
  5
BA
330
17
100
AcDbEntity
  8
LINES
100
AcDbLine
 10
662.61
 20
682.92
 30
0.0
 11
639.5699999999999
 21
644.4
 31
0.0
  0
LINE
  5
BB
330
17
100
AcDbEntity
  8
LINES
100
AcDbLine
 10
662.61
 20
682.92
 30
0.0
 11
639.5699999999999
 21
644.4
 31
0.0
  0
LINE
  5
BC
330
17
100
AcDbEntity
  8
LINES
100
AcDbLine
 10
642.882
 20
638.28
 30
0.0
 11
665.49
 21
681.4799999999999
 31
0.0
  0
LINE
  5
BD
330
17
100
AcDbEntity
  8
LINES
100
AcDbLine
 10
642.882
 20
638.28
 30
0.0
 11
665.49
 21
681.4799999999999
 31
0.0
  0
LINE
  5
BE
330
17
100
AcDbEntity
  8
LINES
100
AcDbLine
 10
667.146
 20
610.1279999999999
 30
0.0
 11
642.882
 21
638.28
 31
0.0
  0
LINE
  5
BF
330
17
100
AcDbEntity
  8
LINES
100
AcDbLine
 10
667.146
 20
610.1279999999999
 30
0.0
 11
642.882
 21
638.28
 31
0.0
  0
TEXT
  5
C0
330
17
100
AcDbEntity
  8
TEXTS
100
AcDbText
 10
615.9137955074581
 20
634.8467192771169
 30
0.0
 40
9.895374533505594
  1
m 4
100
AcDbText
  0
TEXT
  5
C1
330
17
100
AcDbEntity
  8
TEXTS
100
AcDbText
 10
612.6543702218792
 20
631.2352609408315
 30
0.0
 40
9.895374533505594
  1
k /
100
AcDbText
  0
TEXT
  5
C2
330
17
100
AcDbEntity
  8
TEXTS
100
AcDbText
 10
609.3949449363002
 20
626.1064323157029
 30
0.0
 40
9.84497711506162
  1
3 O/O
100
AcDbText
  0
TEXT
  5
C3
330
17
100
AcDbEntity
  8
TEXTS
100
AcDbText
 10
602.8760943651425
 20
620.4008859319752
 30
0.0
 40
10.516822837284076
  1
D/ 2
100
AcDbText
  0
TEXT
  5
C4
330
17
100
AcDbEntity
  8
TEXTS
100
AcDbText
 10
646.8326563194114
 20
611.3362126982795
 30
0.0
 40
10.449626279358778
  1
/
100
AcDbText
  0
TEXT
  5
C5
330
17
100
AcDbEntity
  8
TEXTS
100
AcDbText
 10
649.9999127040508
 20
602.513525952
 30
0.0
 40
12.52207073967935
  1
6k童子山变
100
AcDbText
  0
LWPOLYLINE
  5
C6
330
17
100
AcDbEntity
  8
POLYLINES
100
AcDbPolyline
 90
5
 70
0
 10
665.418
 20
605.52
 10
665.562
 20
604.656
 10
664.554
 20
604.3679999999999
 10
664.266
 20
605.52
 10
665.418
 20
605.52
  0
LWPOLYLINE
  5
C7
330
17
100
AcDbEntity
  8
POLYLINES
100
AcDbPolyline
 90
5
 70
0
 10
665.418
 20
605.52
 10
665.562
 20
604.656
 10
664.554
 20
604.3679999999999
 10
664.266
 20
605.52
 10
665.418
 20
605.52
  0
LWPOLYLINE
  5
C8
330
17
100
AcDbEntity
  8
POLYLINES
100
AcDbPolyline
 90
5
 70
0
 10
665.562
 20
604.656
 10
665.85
 20
603.7919999999999
 10
664.986
 20
603.3599999999999
 10
664.554
 20
604.3679999999999
 10
665.562
 20
604.656
  0
LWPOLYLINE
  5
C9
330
17
100
AcDbEntity
  8
POLYLINES
100
AcDbPolyline
 90
5
 70
0
 10
665.562
 20
604.656
 10
665.85
 20
603.7919999999999
 10
664.986
 20
603.3599999999999
 10
664.554
 20
604.3679999999999
 10
665.562
 20
604.656
  0
LWPOLYLINE
  5
CA
330
17
100
AcDbEntity
  8
POLYLINES
100
AcDbPolyline
 90
5
 70
0
 10
665.85
 20
603.7919999999999
 10
666.4259999999999
 20
603.216
 10
665.85
 20
602.352
 10
664.986
 20
603.3599999999999
 10
665.85
 20
603.7919999999999
  0
LWPOLYLINE
  5
CB
330
17
100
AcDbEntity
  8
POLYLINES
100
AcDbPolyline
 90
5
 70
0
 10
665.85
 20
603.7919999999999
 10
666.4259999999999
 20
603.216
 10
665.85
 20
602.352
 10
664.986
 20
603.3599999999999
 10
665.85
 20
603.7919999999999
  0
LWPOLYLINE
  5
CC
330
17
100
AcDbEntity
  8
POLYLINES
100
AcDbPolyline
 90
5
 70
0
 10
666.4259999999999
 20
603.216
 10
667.29
 20
602.64
 10
666.858
 20
601.776
 10
665.85
 20
602.352
 10
666.4259999999999
 20
603.216
  0
LWPOLYLINE
  5
CD
330
17
100
AcDbEntity
  8
POLYLINES
100
AcDbPolyline
 90
5
 70
0
 10
666.4259999999999
 20
603.216
 10
667.29
 20
602.64
 10
666.858
 20
601.776
 10
665.85
 20
602.352
 10
666.4259999999999
 20
603.216
  0
LWPOLYLINE
  5
CE
330
17
100
AcDbEntity
  8
POLYLINES
100
AcDbPolyline
 90
5
 70
0
 10
667.29
 20
602.64
 10
668.154
 20
602.496
 10
668.01
 20
601.3439999999999
 10
666.858
 20
601.776
 10
667.29
 20
602.64
  0
LWPOLYLINE
  5
CF
330
17
100
AcDbEntity
  8
POLYLINES
100
AcDbPolyline
 90
5
 70
0
 10
667.29
 20
602.64
 10
668.154
 20
602.496
 10
668.01
 20
601.3439999999999
 10
666.858
 20
601.776
 10
667.29
 20
602.64
  0
LWPOLYLINE
  5
D0
330
17
100
AcDbEntity
  8
POLYLINES
100
AcDbPolyline
 90
5
 70
0
 10
668.154
 20
602.496
 10
669.018
 20
602.496
 10
669.162
 20
601.3439999999999
 10
668.01
 20
601.3439999999999
 10
668.154
 20
602.496
  0
LWPOLYLINE
  5
D1
330
17
100
AcDbEntity
  8
POLYLINES
100
AcDbPolyline
 90
5
 70
0
 10
668.154
 20
602.496
 10
669.018
 20
602.496
 10
669.162
 20
601.3439999999999
 10
668.01
 20
601.3439999999999
 10
668.154
 20
602.496
  0
LWPOLYLINE
  5
D2
330
17
100
AcDbEntity
  8
POLYLINES
100
AcDbPolyline
 90
5
 70
0
 10
669.018
 20
602.496
 10
669.882
 20
602.64
 10
670.314
 20
601.776
 10
669.162
 20
601.3439999999999
 10
669.018
 20
602.496
  0
LWPOLYLINE
  5
D3
330
17
100
AcDbEntity
  8
POLYLINES
100
AcDbPolyline
 90
5
 70
0
 10
669.018
 20
602.496
 10
669.882
 20
602.64
 10
670.314
 20
601.776
 10
669.162
 20
601.3439999999999
 10
669.018
 20
602.496
  0
LWPOLYLINE
  5
D4
330
17
100
AcDbEntity
  8
POLYLINES
100
AcDbPolyline
 90
5
 70
0
 10
669.882
 20
602.64
 10
670.602
 20
603.216
 10
671.322
 20
602.352
 10
670.314
 20
601.776
 10
669.882
 20
602.64
  0
LWPOLYLINE
  5
D5
330
17
100
AcDbEntity
  8
POLYLINES
100
AcDbPolyline
 90
5
 70
0
 10
669.882
 20
602.64
 10
670.602
 20
603.216
 10
671.322
 20
602.352
 10
670.314
 20
601.776
 10
669.882
 20
602.64
  0
LWPOLYLINE
  5
D6
330
17
100
AcDbEntity
  8
POLYLINES
100
AcDbPolyline
 90
5
 70
0
 10
670.602
 20
603.216
 10
671.322
 20
603.7919999999999
 10
672.1859999999999
 20
603.3599999999999
 10
671.322
 20
602.352
 10
670.602
 20
603.216
  0
LWPOLYLINE
  5
D7
330
17
100
AcDbEntity
  8
POLYLINES
100
AcDbPolyline
 90
5
 70
0
 10
670.602
 20
603.216
 10
671.322
 20
603.7919999999999
 10
672.1859999999999
 20
603.3599999999999
 10
671.322
 20
602.352
 10
670.602
 20
603.216
  0
LWPOLYLINE
  5
D8
330
17
100
AcDbEntity
  8
POLYLINES
100
AcDbPolyline
 90
5
 70
0
 10
671.322
 20
603.7919999999999
 10
671.61
 20
604.656
 10
672.6179999999999
 20
604.3679999999999
 10
672.1859999999999
 20
603.3599999999999
 10
671.322
 20
603.7919999999999
  0
LWPOLYLINE
  5
D9
330
17
100
AcDbEntity
  8
POLYLINES
100
AcDbPolyline
 90
5
 70
0
 10
671.322
 20
603.7919999999999
 10
671.61
 20
604.656
 10
672.6179999999999
 20
604.3679999999999
 10
672.1859999999999
 20
603.3599999999999
 10
671.322
 20
603.7919999999999
  0
LWPOLYLINE
  5
DA
330
17
100
AcDbEntity
  8
POLYLINES
100
AcDbPolyline
 90
5
 70
0
 10
671.61
 20
604.656
 10
671.754
 20
605.52
 10
672.762
 20
605.52
 10
672.6179999999999
 20
604.3679999999999
 10
671.61
 20
604.656
  0
LWPOLYLINE
  5
DB
330
17
100
AcDbEntity
  8
POLYLINES
100
AcDbPolyline
 90
5
 70
0
 10
671.61
 20
604.656
 10
671.754
 20
605.52
 10
672.762
 20
605.52
 10
672.6179999999999
 20
604.3679999999999
 10
671.61
 20
604.656
  0
LWPOLYLINE
  5
DC
330
17
100
AcDbEntity
  8
POLYLINES
100
AcDbPolyline
 90
5
 70
0
 10
671.754
 20
605.52
 10
671.61
 20
606.5279999999999
 10
672.6179999999999
 20
606.8159999999999
 10
672.762
 20
605.52
 10
671.754
 20
605.52
  0
LWPOLYLINE
  5
DD
330
17
100
AcDbEntity
  8
POLYLINES
100
AcDbPolyline
 90
5
 70
0
 10
671.754
 20
605.52
 10
671.61
 20
606.5279999999999
 10
672.6179999999999
 20
606.8159999999999
 10
672.762
 20
605.52
 10
671.754
 20
605.52
  0
LWPOLYLINE
  5
DE
330
17
100
AcDbEntity
  8
POLYLINES
100
AcDbPolyline
 90
5
 70
0
 10
671.61
 20
606.5279999999999
 10
671.322
 20
607.2479999999999
 10
672.1859999999999
 20
607.824
 10
672.6179999999999
 20
606.8159999999999
 10
671.61
 20
606.5279999999999
  0
LWPOLYLINE
  5
DF
330
17
100
AcDbEntity
  8
POLYLINES
100
AcDbPolyline
 90
5
 70
0
 10
671.61
 20
606.5279999999999
 10
671.322
 20
607.2479999999999
 10
672.1859999999999
 20
607.824
 10
672.6179999999999
 20
606.8159999999999
 10
671.61
 20
606.5279999999999
  0
LWPOLYLINE
  5
E0
330
17
100
AcDbEntity
  8
POLYLINES
100
AcDbPolyline
 90
5
 70
0
 10
671.322
 20
607.2479999999999
 10
670.602
 20
607.968
 10
671.322
 20
608.832
 10
672.1859999999999
 20
607.824
 10
671.322
 20
607.2479999999999
  0
LWPOLYLINE
  5
E1
330
17
100
AcDbEntity
  8
POLYLINES
100
AcDbPolyline
 90
5
 70
0
 10
671.322
 20
607.2479999999999
 10
670.602
 20
607.968
 10
671.322
 20
608.832
 10
672.1859999999999
 20
607.824
 10
671.322
 20
607.2479999999999
  0
LWPOLYLINE
  5
E2
330
17
100
AcDbEntity
  8
POLYLINES
100
AcDbPolyline
 90
5
 70
0
 10
670.602
 20
607.968
 10
669.882
 20
608.544
 10
670.314
 20
609.4079999999999
 10
671.322
 20
608.832
 10
670.602
 20
607.968
  0
LWPOLYLINE
  5
E3
330
17
100
AcDbEntity
  8
POLYLINES
100
AcDbPolyline
 90
5
 70
0
 10
670.602
 20
607.968
 10
669.882
 20
608.544
 10
670.314
 20
609.4079999999999
 10
671.322
 20
608.832
 10
670.602
 20
607.968
  0
LWPOLYLINE
  5
E4
330
17
100
AcDbEntity
  8
POLYLINES
100
AcDbPolyline
 90
5
 70
0
 10
669.882
 20
608.544
 10
669.018
 20
608.688
 10
669.162
 20
609.8399999999999
 10
670.314
 20
609.4079999999999
 10
669.882
 20
608.544
  0
LWPOLYLINE
  5
E5
330
17
100
AcDbEntity
  8
POLYLINES
100
AcDbPolyline
 90
5
 70
0
 10
669.882
 20
608.544
 10
669.018
 20
608.688
 10
669.162
 20
609.8399999999999
 10
670.314
 20
609.4079999999999
 10
669.882
 20
608.544
  0
LWPOLYLINE
  5
E6
330
17
100
AcDbEntity
  8
POLYLINES
100
AcDbPolyline
 90
5
 70
0
 10
669.018
 20
608.688
 10
668.154
 20
608.688
 10
668.01
 20
609.8399999999999
 10
669.162
 20
609.8399999999999
 10
669.018
 20
608.688
  0
LWPOLYLINE
  5
E7
330
17
100
AcDbEntity
  8
POLYLINES
100
AcDbPolyline
 90
5
 70
0
 10
669.018
 20
608.688
 10
668.154
 20
608.688
 10
668.01
 20
609.8399999999999
 10
669.162
 20
609.8399999999999
 10
669.018
 20
608.688
  0
LWPOLYLINE
  5
E8
330
17
100
AcDbEntity
  8
POLYLINES
100
AcDbPolyline
 90
5
 70
0
 10
668.154
 20
608.688
 10
667.29
 20
608.544
 10
666.858
 20
609.4079999999999
 10
668.01
 20
609.8399999999999
 10
668.154
 20
608.688
  0
LWPOLYLINE
  5
E9
330
17
100
AcDbEntity
  8
POLYLINES
100
AcDbPolyline
 90
5
 70
0
 10
668.154
 20
608.688
 10
667.29
 20
608.544
 10
666.858
 20
609.4079999999999
 10
668.01
 20
609.8399999999999
 10
668.154
 20
608.688
  0
LWPOLYLINE
  5
EA
330
17
100
AcDbEntity
  8
POLYLINES
100
AcDbPolyline
 90
5
 70
0
 10
667.29
 20
608.544
 10
666.4259999999999
 20
607.968
 10
665.85
 20
608.832
 10
666.858
 20
609.4079999999999
 10
667.29
 20
608.544
  0
LWPOLYLINE
  5
EB
330
17
100
AcDbEntity
  8
POLYLINES
100
AcDbPolyline
 90
5
 70
0
 10
667.29
 20
608.544
 10
666.4259999999999
 20
607.968
 10
665.85
 20
608.832
 10
666.858
 20
609.4079999999999
 10
667.29
 20
608.544
  0
LWPOLYLINE
  5
EC
330
17
100
AcDbEntity
  8
POLYLINES
100
AcDbPolyline
 90
5
 70
0
 10
666.4259999999999
 20
607.968
 10
665.85
 20
607.2479999999999
 10
664.986
 20
607.824
 10
665.85
 20
608.832
 10
666.4259999999999
 20
607.968
  0
LWPOLYLINE
  5
ED
330
17
100
AcDbEntity
  8
POLYLINES
100
AcDbPolyline
 90
5
 70
0
 10
666.4259999999999
 20
607.968
 10
665.85
 20
607.2479999999999
 10
664.986
 20
607.824
 10
665.85
 20
608.832
 10
666.4259999999999
 20
607.968
  0
LWPOLYLINE
  5
EE
330
17
100
AcDbEntity
  8
POLYLINES
100
AcDbPolyline
 90
5
 70
0
 10
665.85
 20
607.2479999999999
 10
665.562
 20
606.5279999999999
 10
664.554
 20
606.8159999999999
 10
664.986
 20
607.824
 10
665.85
 20
607.2479999999999
  0
LWPOLYLINE
  5
EF
330
17
100
AcDbEntity
  8
POLYLINES
100
AcDbPolyline
 90
5
 70
0
 10
665.85
 20
607.2479999999999
 10
665.562
 20
606.5279999999999
 10
664.554
 20
606.8159999999999
 10
664.986
 20
607.824
 10
665.85
 20
607.2479999999999
  0
LWPOLYLINE
  5
F0
330
17
100
AcDbEntity
  8
POLYLINES
100
AcDbPolyline
 90
5
 70
0
 10
665.562
 20
606.5279999999999
 10
665.418
 20
605.52
 10
664.266
 20
605.52
 10
664.554
 20
606.8159999999999
 10
665.562
 20
606.5279999999999
  0
LWPOLYLINE
  5
F1
330
17
100
AcDbEntity
  8
POLYLINES
100
AcDbPolyline
 90
5
 70
0
 10
665.562
 20
606.5279999999999
 10
665.418
 20
605.52
 10
664.266
 20
605.52
 10
664.554
 20
606.8159999999999
 10
665.562
 20
606.5279999999999
  0
TEXT
  5
F2
330
17
100
AcDbEntity
  8
TEXTS
100
AcDbText
 10
644.6281052189884
 20
696.5442897094151
 30
0.0
 40
9.361186526156564
  1
.
100
AcDbText
  0
TEXT
  5
F3
330
17
100
AcDbEntity
  8
TEXTS
100
AcDbText
 10
642.1396616493282
 20
692.3640802711693
 30
0.0
 40
9.361186526156564
  1
7
100
AcDbText
  0
TEXT
  5
F4
330
17
100
AcDbEntity
  8
TEXTS
100
AcDbText
 10
639.651218079668
 20
688.1838708329236
 30
0.0
 40
9.361186526156564
  1
/
100
AcDbText
  0
TEXT
  5
F5
330
17
100
AcDbEntity
  8
TEXTS
100
AcDbText
 10
637.1627745100078
 20
684.0036613946778
 30
0.0
 40
9.361186526156564
  1
D
100
AcDbText
  0
TEXT
  5
F6
330
17
100
AcDbEntity
  8
TEXTS
100
AcDbText
 10
634.6743309403477
 20
679.8234519564321
 30
0.0
 40
9.361186526156564
  1
8
100
AcDbText
  0
TEXT
  5
F7
330
17
100
AcDbEntity
  8
TEXTS
100
AcDbText
 10
629.6974438010274
 20
670.1238392693048
 30
0.0
 40
9.28395809897919
  1
/ k
100
AcDbText
  0
TEXT
  5
F8
330
17
100
AcDbEntity
  8
TEXTS
100
AcDbText
 10
627.2090002313672
 20
665.8916735414974
 30
0.0
 40
9.28395809897919
  1
O 9
100
AcDbText
  0
TEXT
  5
F9
330
17
100
AcDbEntity
  8
TEXTS
100
AcDbText
 10
647.1165487886485
 20
691.073525952
 30
0.0
 40
11.977850863078242
  1
2三堂街变
100
AcDbText
  0
LWPOLYLINE
  5
FA
330
17
100
AcDbEntity
  8
POLYLINES
100
AcDbPolyline
 90
5
 70
0
 10
662.394
 20
685.2959999999999
 10
662.394
 20
684.2879999999999
 10
661.386
 20
684.0
 10
661.242
 20
685.2959999999999
 10
662.394
 20
685.2959999999999
  0
LWPOLYLINE
  5
FB
330
17
100
AcDbEntity
  8
POLYLINES
100
AcDbPolyline
 90
5
 70
0
 10
662.394
 20
685.2959999999999
 10
662.394
 20
684.2879999999999
 10
661.386
 20
684.0
 10
661.242
 20
685.2959999999999
 10
662.394
 20
685.2959999999999
  0
LWPOLYLINE
  5
FC
330
17
100
AcDbEntity
  8
POLYLINES
100
AcDbPolyline
 90
5
 70
0
 10
662.394
 20
684.2879999999999
 10
662.826
 20
683.568
 10
661.962
 20
682.992
 10
661.386
 20
684.0
 10
662.394
 20
684.2879999999999
  0
LWPOLYLINE
  5
FD
330
17
100
AcDbEntity
  8
POLYLINES
100
AcDbPolyline
 90
5
 70
0
 10
662.394
 20
684.2879999999999
 10
662.826
 20
683.568
 10
661.962
 20
682.992
 10
661.386
 20
684.0
 10
662.394
 20
684.2879999999999
  0
LWPOLYLINE
  5
FE
330
17
100
AcDbEntity
  8
POLYLINES
100
AcDbPolyline
 90
5
 70
0
 10
662.826
 20
683.568
 10
663.4019999999999
 20
682.848
 10
662.682
 20
681.9839999999999
 10
661.962
 20
682.992
 10
662.826
 20
683.568
  0
LWPOLYLINE
  5
FF
330
17
100
AcDbEntity
  8
POLYLINES
100
AcDbPolyline
 90
5
 70
0
 10
662.826
 20
683.568
 10
663.4019999999999
 20
682.848
 10
662.682
 20
681.9839999999999
 10
661.962
 20
682.992
 10
662.826
 20
683.568
  0
LWPOLYLINE
  5
100
330
17
100
AcDbEntity
  8
POLYLINES
100
AcDbPolyline
 90
5
 70
0
 10
663.4019999999999
 20
682.848
 10
664.122
 20
682.4159999999999
 10
663.6899999999999
 20
681.4079999999999
 10
662.682
 20
681.9839999999999
 10
663.4019999999999
 20
682.848
  0
LWPOLYLINE
  5
101
330
17
100
AcDbEntity
  8
POLYLINES
100
AcDbPolyline
 90
5
 70
0
 10
663.4019999999999
 20
682.848
 10
664.122
 20
682.4159999999999
 10
663.6899999999999
 20
681.4079999999999
 10
662.682
 20
681.9839999999999
 10
663.4019999999999
 20
682.848
  0
LWPOLYLINE
  5
102
330
17
100
AcDbEntity
  8
POLYLINES
100
AcDbPolyline
 90
5
 70
0
 10
664.122
 20
682.4159999999999
 10
665.13
 20
682.1279999999999
 10
664.842
 20
680.976
 10
663.6899999999999
 20
681.4079999999999
 10
664.122
 20
682.4159999999999
  0
LWPOLYLINE
  5
103
330
17
100
AcDbEntity
  8
POLYLINES
100
AcDbPolyline
 90
5
 70
0
 10
664.122
 20
682.4159999999999
 10
665.13
 20
682.1279999999999
 10
664.842
 20
680.976
 10
663.6899999999999
 20
681.4079999999999
 10
664.122
 20
682.4159999999999
  0
LWPOLYLINE
  5
104
330
17
100
AcDbEntity
  8
POLYLINES
100
AcDbPolyline
 90
5
 70
0
 10
665.13
 20
682.1279999999999
 10
665.994
 20
682.1279999999999
 10
666.138
 20
680.976
 10
664.842
 20
680.976
 10
665.13
 20
682.1279999999999
  0
LWPOLYLINE
  5
105
330
17
100
AcDbEntity
  8
POLYLINES
100
AcDbPolyline
 90
5
 70
0
 10
665.13
 20
682.1279999999999
 10
665.994
 20
682.1279999999999
 10
666.138
 20
680.976
 10
664.842
 20
680.976
 10
665.13
 20
682.1279999999999
  0
LWPOLYLINE
  5
106
330
17
100
AcDbEntity
  8
POLYLINES
100
AcDbPolyline
 90
5
 70
0
 10
665.994
 20
682.1279999999999
 10
666.858
 20
682.4159999999999
 10
667.29
 20
681.4079999999999
 10
666.138
 20
680.976
 10
665.994
 20
682.1279999999999
  0
LWPOLYLINE
  5
107
330
17
100
AcDbEntity
  8
POLYLINES
100
AcDbPolyline
 90
5
 70
0
 10
665.994
 20
682.1279999999999
 10
666.858
 20
682.4159999999999
 10
667.29
 20
681.4079999999999
 10
666.138
 20
680.976
 10
665.994
 20
682.1279999999999
  0
LWPOLYLINE
  5
108
330
17
100
AcDbEntity
  8
POLYLINES
100
AcDbPolyline
 90
5
 70
0
 10
666.858
 20
682.4159999999999
 10
667.578
 20
682.848
 10
668.298
 20
681.9839999999999
 10
667.29
 20
681.4079999999999
 10
666.858
 20
682.4159999999999
  0
LWPOLYLINE
  5
109
330
17
100
AcDbEntity
  8
POLYLINES
100
AcDbPolyline
 90
5
 70
0
 10
666.858
 20
682.4159999999999
 10
667.578
 20
682.848
 10
668.298
 20
681.9839999999999
 10
667.29
 20
681.4079999999999
 10
666.858
 20
682.4159999999999
  0
LWPOLYLINE
  5
10A
330
17
100
AcDbEntity
  8
POLYLINES
100
AcDbPolyline
 90
5
 70
0
 10
667.578
 20
682.848
 10
668.154
 20
683.568
 10
669.162
 20
682.992
 10
668.298
 20
681.9839999999999
 10
667.578
 20
682.848
  0
LWPOLYLINE
  5
10B
330
17
100
AcDbEntity
  8
POLYLINES
100
AcDbPolyline
 90
5
 70
0
 10
667.578
 20
682.848
 10
668.154
 20
683.568
 10
669.162
 20
682.992
 10
668.298
 20
681.9839999999999
 10
667.578
 20
682.848
  0
LWPOLYLINE
  5
10C
330
17
100
AcDbEntity
  8
POLYLINES
100
AcDbPolyline
 90
5
 70
0
 10
668.154
 20
683.568
 10
668.586
 20
684.2879999999999
 10
669.5939999999999
 20
684.0
 10
669.162
 20
682.992
 10
668.154
 20
683.568
  0
LWPOLYLINE
  5
10D
330
17
100
AcDbEntity
  8
POLYLINES
100
AcDbPolyline
 90
5
 70
0
 10
668.154
 20
683.568
 10
668.586
 20
684.2879999999999
 10
669.5939999999999
 20
684.0
 10
669.162
 20
682.992
 10
668.154
 20
683.568
  0
LWPOLYLINE
  5
10E
330
17
100
AcDbEntity
  8
POLYLINES
100
AcDbPolyline
 90
5
 70
0
 10
668.586
 20
684.2879999999999
 10
668.73
 20
685.2959999999999
 10
669.7379999999999
 20
685.2959999999999
 10
669.5939999999999
 20
684.0
 10
668.586
 20
684.2879999999999
  0
LWPOLYLINE
  5
10F
330
17
100
AcDbEntity
  8
POLYLINES
100
AcDbPolyline
 90
5
 70
0
 10
668.586
 20
684.2879999999999
 10
668.73
 20
685.2959999999999
 10
669.7379999999999
 20
685.2959999999999
 10
669.5939999999999
 20
684.0
 10
668.586
 20
684.2879999999999
  0
LWPOLYLINE
  5
110
330
17
100
AcDbEntity
  8
POLYLINES
100
AcDbPolyline
 90
5
 70
0
 10
668.73
 20
685.2959999999999
 10
668.586
 20
686.16
 10
669.5939999999999
 20
686.448
 10
669.7379999999999
 20
685.2959999999999
 10
668.73
 20
685.2959999999999
  0
LWPOLYLINE
  5
111
330
17
100
AcDbEntity
  8
POLYLINES
100
AcDbPolyline
 90
5
 70
0
 10
668.73
 20
685.2959999999999
 10
668.586
 20
686.16
 10
669.5939999999999
 20
686.448
 10
669.7379999999999
 20
685.2959999999999
 10
668.73
 20
685.2959999999999
  0
LWPOLYLINE
  5
112
330
17
100
AcDbEntity
  8
POLYLINES
100
AcDbPolyline
 90
5
 70
0
 10
668.586
 20
686.16
 10
668.154
 20
687.024
 10
669.162
 20
687.5999999999999
 10
669.5939999999999
 20
686.448
 10
668.586
 20
686.16
  0
LWPOLYLINE
  5
113
330
17
100
AcDbEntity
  8
POLYLINES
100
AcDbPolyline
 90
5
 70
0
 10
668.586
 20
686.16
 10
668.154
 20
687.024
 10
669.162
 20
687.5999999999999
 10
669.5939999999999
 20
686.448
 10
668.586
 20
686.16
  0
LWPOLYLINE
  5
114
330
17
100
AcDbEntity
  8
POLYLINES
100
AcDbPolyline
 90
5
 70
0
 10
668.154
 20
687.024
 10
667.578
 20
687.5999999999999
 10
668.298
 20
688.4639999999999
 10
669.162
 20
687.5999999999999
 10
668.154
 20
687.024
  0
LWPOLYLINE
  5
115
330
17
100
AcDbEntity
  8
POLYLINES
100
AcDbPolyline
 90
5
 70
0
 10
668.154
 20
687.024
 10
667.578
 20
687.5999999999999
 10
668.298
 20
688.4639999999999
 10
669.162
 20
687.5999999999999
 10
668.154
 20
687.024
  0
LWPOLYLINE
  5
116
330
17
100
AcDbEntity
  8
POLYLINES
100
AcDbPolyline
 90
5
 70
0
 10
667.578
 20
687.5999999999999
 10
666.858
 20
688.1759999999999
 10
667.29
 20
689.184
 10
668.298
 20
688.4639999999999
 10
667.578
 20
687.5999999999999
  0
LWPOLYLINE
  5
117
330
17
100
AcDbEntity
  8
POLYLINES
100
AcDbPolyline
 90
5
 70
0
 10
667.578
 20
687.5999999999999
 10
666.858
 20
688.1759999999999
 10
667.29
 20
689.184
 10
668.298
 20
688.4639999999999
 10
667.578
 20
687.5999999999999
  0
LWPOLYLINE
  5
118
330
17
100
AcDbEntity
  8
POLYLINES
100
AcDbPolyline
 90
5
 70
0
 10
666.858
 20
688.1759999999999
 10
665.994
 20
688.4639999999999
 10
666.138
 20
689.472
 10
667.29
 20
689.184
 10
666.858
 20
688.1759999999999
  0
LWPOLYLINE
  5
119
330
17
100
AcDbEntity
  8
POLYLINES
100
AcDbPolyline
 90
5
 70
0
 10
666.858
 20
688.1759999999999
 10
665.994
 20
688.4639999999999
 10
666.138
 20
689.472
 10
667.29
 20
689.184
 10
666.858
 20
688.1759999999999
  0
LWPOLYLINE
  5
11A
330
17
100
AcDbEntity
  8
POLYLINES
100
AcDbPolyline
 90
5
 70
0
 10
665.994
 20
688.4639999999999
 10
665.13
 20
688.4639999999999
 10
664.842
 20
689.472
 10
666.138
 20
689.472
 10
665.994
 20
688.4639999999999
  0
LWPOLYLINE
  5
11B
330
17
100
AcDbEntity
  8
POLYLINES
100
AcDbPolyline
 90
5
 70
0
 10
665.994
 20
688.4639999999999
 10
665.13
 20
688.4639999999999
 10
664.842
 20
689.472
 10
666.138
 20
689.472
 10
665.994
 20
688.4639999999999
  0
LWPOLYLINE
  5
11C
330
17
100
AcDbEntity
  8
POLYLINES
100
AcDbPolyline
 90
5
 70
0
 10
665.13
 20
688.4639999999999
 10
664.122
 20
688.1759999999999
 10
663.6899999999999
 20
689.184
 10
664.842
 20
689.472
 10
665.13
 20
688.4639999999999
  0
LWPOLYLINE
  5
11D
330
17
100
AcDbEntity
  8
POLYLINES
100
AcDbPolyline
 90
5
 70
0
 10
665.13
 20
688.4639999999999
 10
664.122
 20
688.1759999999999
 10
663.6899999999999
 20
689.184
 10
664.842
 20
689.472
 10
665.13
 20
688.4639999999999
  0
LWPOLYLINE
  5
11E
330
17
100
AcDbEntity
  8
POLYLINES
100
AcDbPolyline
 90
5
 70
0
 10
664.122
 20
688.1759999999999
 10
663.4019999999999
 20
687.5999999999999
 10
662.682
 20
688.4639999999999
 10
663.6899999999999
 20
689.184
 10
664.122
 20
688.1759999999999
  0
LWPOLYLINE
  5
11F
330
17
100
AcDbEntity
  8
POLYLINES
100
AcDbPolyline
 90
5
 70
0
 10
664.122
 20
688.1759999999999
 10
663.4019999999999
 20
687.5999999999999
 10
662.682
 20
688.4639999999999
 10
663.6899999999999
 20
689.184
 10
664.122
 20
688.1759999999999
  0
LWPOLYLINE
  5
120
330
17
100
AcDbEntity
  8
POLYLINES
100
AcDbPolyline
 90
5
 70
0
 10
663.4019999999999
 20
687.5999999999999
 10
662.826
 20
687.024
 10
661.962
 20
687.5999999999999
 10
662.682
 20
688.4639999999999
 10
663.4019999999999
 20
687.5999999999999
  0
LWPOLYLINE
  5
121
330
17
100
AcDbEntity
  8
POLYLINES
100
AcDbPolyline
 90
5
 70
0
 10
663.4019999999999
 20
687.5999999999999
 10
662.826
 20
687.024
 10
661.962
 20
687.5999999999999
 10
662.682
 20
688.4639999999999
 10
663.4019999999999
 20
687.5999999999999
  0
LWPOLYLINE
  5
122
330
17
100
AcDbEntity
  8
POLYLINES
100
AcDbPolyline
 90
5
 70
0
 10
662.826
 20
687.024
 10
662.394
 20
686.16
 10
661.386
 20
686.448
 10
661.962
 20
687.5999999999999
 10
662.826
 20
687.024
  0
LWPOLYLINE
  5
123
330
17
100
AcDbEntity
  8
POLYLINES
100
AcDbPolyline
 90
5
 70
0
 10
662.826
 20
687.024
 10
662.394
 20
686.16
 10
661.386
 20
686.448
 10
661.962
 20
687.5999999999999
 10
662.826
 20
687.024
  0
LWPOLYLINE
  5
124
330
17
100
AcDbEntity
  8
POLYLINES
100
AcDbPolyline
 90
5
 70
0
 10
662.394
 20
686.16
 10
662.394
 20
685.2959999999999
 10
661.242
 20
685.2959999999999
 10
661.386
 20
686.448
 10
662.394
 20
686.16
  0
LWPOLYLINE
  5
125
330
17
100
AcDbEntity
  8
POLYLINES
100
AcDbPolyline
 90
5
 70
0
 10
662.394
 20
686.16
 10
662.394
 20
685.2959999999999
 10
661.242
 20
685.2959999999999
 10
661.386
 20
686.448
 10
662.394
 20
686.16
  0
TEXT
  5
126
330
17
100
AcDbEntity
  8
TEXTS
100
AcDbText
 10
649.6049923583087
 20
704.9047085859066
 30
0.0
 40
9.361186526156564
  1
k
100
AcDbText
  0
LINE
  5
127
330
17
100
AcDbEntity
  8
LINES
100
AcDbLine
 10
658.29
 20
553.1759999999999
 30
0.0
 11
668.586
 21
601.848
 31
0.0
  0
LINE
  5
128
330
17
100
AcDbEntity
  8
LINES
100
AcDbLine
 10
658.29
 20
553.1759999999999
 30
0.0
 11
668.586
 21
601.848
 31
0.0
  0
TEXT
  5
129
330
17
100
AcDbEntity
  8
TEXTS
100
AcDbText
 10
665.85
 20
563.6291505551999
 30
0.0
 40
10.945847520000074
  1
O/24D/19.369km
100
AcDbText
  0
LINE
  5
12A
330
17
100
AcDbEntity
  8
LINES
100
AcDbLine
 10
685.29
 20
657.5039999999999
 30
0.0
 11
670.674
 21
609.336
 31
0.0
  0
LINE
  5
12B
330
17
100
AcDbEntity
  8
LINES
100
AcDbLine
 10
685.29
 20
657.5039999999999
 30
0.0
 11
670.674
 21
609.336
 31
0.0
  0
TEXT
  5
12C
330
17
100
AcDbEntity
  8
TEXTS
100
AcDbText
 10
653.8294783515786
 20
648.9630106302681
 30
0.0
 40
9.206729671801815
  1
D
100
AcDbText
  0
TEXT
  5
12D
330
17
100
AcDbEntity
  8
TEXTS
100
AcDbText
 10
651.4304647885673
 20
644.7308449024606
 30
0.0
 40
9.206729671801815
  1
8
100
AcDbText
  0
TEXT
  5
12E
330
17
100
AcDbEntity
  8
TEXTS
100
AcDbText
 10
656.3344254733295
 20
600.258547985212
 30
0.0
 40
10.449626279358778
  1
m
100
AcDbText
  0
TEXT
  5
12F
330
17
100
AcDbEntity
  8
TEXTS
100
AcDbText
 10
661.0265190406121
 20
661.6595078136901
 30
0.0
 40
9.206729671801815
  1
.
100
AcDbText
  0
TEXT
  5
130
330
17
100
AcDbEntity
  8
TEXTS
100
AcDbText
 10
658.627505477601
 20
657.4273420858827
 30
0.0
 40
9.206729671801815
  1
6
100
AcDbText
  0
TEXT
  5
131
330
17
100
AcDbEntity
  8
TEXTS
100
AcDbText
 10
656.2284919145898
 20
653.1951763580754
 30
0.0
 40
9.206729671801815
  1
/
100
AcDbText
  0
TEXT
  5
132
330
17
100
AcDbEntity
  8
TEXTS
100
AcDbText
 10
652.0934359279688
 20
709.0849180241523
 30
0.0
 40
9.361186526156564
  1
m
100
AcDbText
  0
TEXT
  5
133
330
17
100
AcDbEntity
  8
TEXTS
100
AcDbText
 10
720.5699999999999
 20
655.7891505551999
 30
0.0
 40
10.945847520000074
  1
O/24D/30km
100
AcDbText
  0
TEXT
  5
134
330
17
100
AcDbEntity
  8
TEXTS
100
AcDbText
 10
541.5002288021882
 20
497.4571706998504
 30
0.0
 40
7.309214464141723
  1
/
100
AcDbText
  0
TEXT
  5
135
330
17
100
AcDbEntity
  8
TEXTS
100
AcDbText
 10
540.1173401561537
 20
492.79304291033486
 30
0.0
 40
7.309214464141723
  1
D
100
AcDbText
  0
TEXT
  5
136
330
17
100
AcDbEntity
  8
TEXTS
100
AcDbText
 10
542.8831174482228
 20
502.1212984893659
 30
0.0
 40
7.309214464141723
  1
1
100
AcDbText
  0
TEXT
  5
137
330
17
100
AcDbEntity
  8
TEXTS
100
AcDbText
 10
538.7344515101191
 20
488.12891512081933
 30
0.0
 40
7.309214464141723
  1
2
100
AcDbText
  0
TEXT
  5
138
330
17
100
AcDbEntity
  8
TEXTS
100
AcDbText
 10
537.3515628640846
 20
483.46478733130385
 30
0.0
 40
7.309214464141723
  1
1
100
AcDbText
  0
TEXT
  5
139
330
17
100
AcDbEntity
  8
TEXTS
100
AcDbText
 10
535.96867421805
 20
478.8006595417883
 30
0.0
 40
7.309214464141723
  1
/
100
AcDbText
  0
LWPOLYLINE
  5
13A
330
17
100
AcDbEntity
  8
POLYLINES
100
AcDbPolyline
 90
4
 70
0
 10
16.8420000000001
 20
858.8159999999999
 10
1207.434
 20
858.8159999999999
 10
1207.434
 20
16.847999999999956
 10
16.8420000000001
 20
16.847999999999956
  0
LINE
  5
13B
330
17
100
AcDbEntity
  8
LINES
100
AcDbLine
 10
87.76200000000006
 20
830.4479999999999
 30
0.0
 11
87.76200000000006
 21
45.215999999999894
 31
0.0
  0
LINE
  5
13C
330
17
100
AcDbEntity
  8
LINES
100
AcDbLine
 10
87.76200000000006
 20
830.4479999999999
 30
0.0
 11
87.76200000000006
 21
45.215999999999894
 31
0.0
  0
LINE
  5
13D
330
17
100
AcDbEntity
  8
LINES
100
AcDbLine
 10
1179.138
 20
830.4479999999999
 30
0.0
 11
87.76200000000006
 21
830.4479999999999
 31
0.0
  0
LINE
  5
13E
330
17
100
AcDbEntity
  8
LINES
100
AcDbLine
 10
1179.138
 20
830.4479999999999
 30
0.0
 11
87.76200000000006
 21
830.4479999999999
 31
0.0
  0
LINE
  5
13F
330
17
100
AcDbEntity
  8
LINES
100
AcDbLine
 10
1179.138
 20
45.215999999999894
 30
0.0
 11
1179.138
 21
830.4479999999999
 31
0.0
  0
LINE
  5
140
330
17
100
AcDbEntity
  8
LINES
100
AcDbLine
 10
1179.138
 20
45.215999999999894
 30
0.0
 11
1179.138
 21
830.4479999999999
 31
0.0
  0
LINE
  5
141
330
17
100
AcDbEntity
  8
LINES
100
AcDbLine
 10
87.76200000000006
 20
45.215999999999894
 30
0.0
 11
1179.138
 21
45.215999999999894
 31
0.0
  0
LINE
  5
142
330
17
100
AcDbEntity
  8
LINES
100
AcDbLine
 10
87.76200000000006
 20
45.215999999999894
 30
0.0
 11
1179.138
 21
45.215999999999894
 31
0.0
  0
ENDSEC
  0
SECTION
  2
OBJECTS
  0
DICTIONARY
  5
A
330
0
100
AcDbDictionary
281
1
  3
ACAD_COLOR
350
B
  3
ACAD_GROUP
350
C
  3
ACAD_LAYOUT
350
D
  3
ACAD_MATERIAL
350
E
  3
ACAD_MLEADERSTYLE
350
F
  3
ACAD_MLINESTYLE
350
10
  3
ACAD_PLOTSETTINGS
350
11
  3
ACAD_PLOTSTYLENAME
350
12
  3
ACAD_SCALELIST
350
14
  3
ACAD_TABLESTYLE
350
15
  3
ACAD_VISUALSTYLE
350
16
  3
EZDXF_META
350
2D
  0
DICTIONARY
  5
B
330
A
100
AcDbDictionary
281
1
  0
DICTIONARY
  5
C
330
A
100
AcDbDictionary
281
1
  0
DICTIONARY
  5
D
330
A
100
AcDbDictionary
281
1
  3
Model
350
1A
  3
Layout1
350
1E
  0
DICTIONARY
  5
E
330
A
100
AcDbDictionary
281
1
  3
ByBlock
350
1F
  3
ByLayer
350
20
  3
Global
350
21
  0
DICTIONARY
  5
F
330
A
100
AcDbDictionary
281
1
  3
Standard
350
2C
  0
DICTIONARY
  5
10
330
A
100
AcDbDictionary
281
1
  3
Standard
350
22
  0
DICTIONARY
  5
11
330
A
100
AcDbDictionary
281
1
  0
ACDBDICTIONARYWDFLT
  5
12
330
A
100
AcDbDictionary
281
1
  3
Normal
350
13
100
AcDbDictionaryWithDefault
340
13
  0
ACDBPLACEHOLDER
  5
13
330
12
  0
DICTIONARY
  5
14
330
A
100
AcDbDictionary
281
1
  0
DICTIONARY
  5
15
330
A
100
AcDbDictionary
281
1
  0
DICTIONARY
  5
16
330
A
100
AcDbDictionary
281
1
  0
LAYOUT
  5
1A
330
D
100
AcDbPlotSettings
  1

  4
A3
  6

 40
7.5
 41
20.0
 42
7.5
 43
20.0
 44
420.0
 45
297.0
 46
0.0
 47
0.0
 48
0.0
 49
0.0
140
0.0
141
0.0
142
1.0
143
1.0
 70
1024
 72
1
 73
0
 74
5
  7

 75
16
 76
0
 77
2
 78
300
147
1.0
148
0.0
149
0.0
100
AcDbLayout
  1
Model
 70
1
 71
0
 10
0.0
 20
0.0
 11
420.0
 21
297.0
 12
0.0
 22
0.0
 32
0.0
 14
1e+20
 24
1e+20
 34
1e+20
 15
-1e+20
 25
-1e+20
 35
-1e+20
146
0.0
 13
0.0
 23
0.0
 33
0.0
 16
1.0
 26
0.0
 36
0.0
 17
0.0
 27
1.0
 37
0.0
 76
1
330
17
  0
LAYOUT
  5
1E
330
D
100
AcDbPlotSettings
  1

  4
A3
  6

 40
7.5
 41
20.0
 42
7.5
 43
20.0
 44
420.0
 45
297.0
 46
0.0
 47
0.0
 48
0.0
 49
0.0
140
0.0
141
0.0
142
1.0
143
1.0
 70
0
 72
1
 73
0
 74
5
  7

 75
16
 76
0
 77
2
 78
300
147
1.0
148
0.0
149
0.0
100
AcDbLayout
  1
Layout1
 70
1
 71
1
 10
0.0
 20
0.0
 11
420.0
 21
297.0
 12
0.0
 22
0.0
 32
0.0
 14
1e+20
 24
1e+20
 34
1e+20
 15
-1e+20
 25
-1e+20
 35
-1e+20
146
0.0
 13
0.0
 23
0.0
 33
0.0
 16
1.0
 26
0.0
 36
0.0
 17
0.0
 27
1.0
 37
0.0
 76
1
330
1B
  0
MATERIAL
  5
1F
102
{ACAD_REACTORS
330
E
102
}
330
E
100
AcDbMaterial
  1
ByBlock
  2

 70
0
 40
1.0
 71
1
 41
1.0
 91
-1023410177
 42
1.0
 72
1
  3

 73
1
 74
1
 75
1
 44
0.5
 73
0
 45
1.0
 46
1.0
 77
1
  4

 78
1
 79
1
170
1
 48
1.0
171
1
  6

172
1
173
1
174
1
140
1.0
141
1.0
175
1
  7

176
1
177
1
178
1
143
1.0
179
1
  8

270
1
271
1
272
1
145
1.0
146
1.0
273
1
  9

274
1
275
1
276
1
 42
1.0
 72
1
  3

 73
1
 74
1
 75
1
 94
63
  0
MATERIAL
  5
20
102
{ACAD_REACTORS
330
E
102
}
330
E
100
AcDbMaterial
  1
ByLayer
  2

 70
0
 40
1.0
 71
1
 41
1.0
 91
-1023410177
 42
1.0
 72
1
  3

 73
1
 74
1
 75
1
 44
0.5
 73
0
 45
1.0
 46
1.0
 77
1
  4

 78
1
 79
1
170
1
 48
1.0
171
1
  6

172
1
173
1
174
1
140
1.0
141
1.0
175
1
  7

176
1
177
1
178
1
143
1.0
179
1
  8

270
1
271
1
272
1
145
1.0
146
1.0
273
1
  9

274
1
275
1
276
1
 42
1.0
 72
1
  3

 73
1
 74
1
 75
1
 94
63
  0
MATERIAL
  5
21
102
{ACAD_REACTORS
330
E
102
}
330
E
100
AcDbMaterial
  1
Global
  2

 70
0
 40
1.0
 71
1
 41
1.0
 91
-1023410177
 42
1.0
 72
1
  3

 73
1
 74
1
 75
1
 44
0.5
 73
0
 45
1.0
 46
1.0
 77
1
  4

 78
1
 79
1
170
1
 48
1.0
171
1
  6

172
1
173
1
174
1
140
1.0
141
1.0
175
1
  7

176
1
177
1
178
1
143
1.0
179
1
  8

270
1
271
1
272
1
145
1.0
146
1.0
273
1
  9

274
1
275
1
276
1
 42
1.0
 72
1
  3

 73
1
 74
1
 75
1
 94
63
  0
MLINESTYLE
  5
22
102
{ACAD_REACTORS
330
10
102
}
330
10
100
AcDbMlineStyle
  2
Standard
 70
0
  3

 62
256
 51
90.0
 52
90.0
 71
2
 49
0.5
 62
256
  6
BYLAYER
 49
-0.5
 62
256
  6
BYLAYER
  0
MLEADERSTYLE
  5
2C
102
{ACAD_REACTORS
330
F
102
}
330
F
100
AcDbMLeaderStyle
179
2
170
2
171
1
172
0
 90
2
 40
0.0
 41
0.0
173
1
 91
-1056964608
 92
-2
290
1
 42
2.0
291
1
 43
8.0
  3
Standard
 44
4.0
300

342
29
174
1
175
1
176
0
178
1
 93
-1056964608
 45
4.0
292
0
297
0
 46
4.0
 94
-1056964608
 47
1.0
 49
1.0
140
1.0
294
1
141
0.0
177
0
142
1.0
295
0
296
0
143
3.75
271
0
272
9
273
9
  0
DICTIONARY
  5
2D
330
A
100
AcDbDictionary
280
1
281
1
  3
CREATED_BY_EZDXF
350
2E
  3
WRITTEN_BY_EZDXF
350
145
  0
DICTIONARYVAR
  5
2E
330
2D
100
DictionaryVariables
280
0
  1
1.4.4 @ 2026-08-22T14:42:46.811317+00:00
  0
DICTIONARYVAR
  5
145
330
2D
100
DictionaryVariables
280
0
  1
1.4.4 @ 2026-08-22T14:42:46.824792+00:00
  0
ENDSEC
  0
EOF
